<svg xmlns="http://www.w3.org/2000/svg" xmlns:xlink="http://www.w3.org/1999/xlink" width="500" zoomAndPan="magnify" viewBox="0 0 375 374.999991" height="500" preserveAspectRatio="xMidYMid meet" version="1.0"><defs><clipPath id="c34b1c21e1"><path d="M 22.5 22.910156 L 352.5 22.910156 L 352.5 352.160156 L 22.5 352.160156 Z M 22.5 22.910156 " clip-rule="nonzero"/></clipPath></defs><rect x="-37.5" width="450" fill="#ffffff" y="-37.499999" height="449.999989" fill-opacity="1"/><rect x="-37.5" width="450" fill="#ffffff" y="-37.499999" height="449.999989" fill-opacity="1"/><g clip-path="url(#c34b1c21e1)"><path fill="#8b0000" d="M 351.785156 185.554688 C 351.523438 185.15625 351.324219 184.761719 351.128906 184.433594 C 351.195312 183.578125 351.0625 182.722656 351.390625 181.933594 C 351.457031 181.800781 351.457031 181.605469 351.390625 181.472656 C 351.128906 180.550781 351.195312 179.628906 350.863281 178.707031 C 350.601562 177.984375 350.601562 177.257812 350.796875 176.601562 C 350.929688 176.140625 350.929688 175.8125 350.863281 175.351562 C 350.734375 174.5625 350.402344 173.769531 350.601562 172.914062 C 350.601562 172.785156 350.535156 172.585938 350.535156 172.453125 C 350.46875 171.992188 350.535156 171.46875 350.335938 171.007812 C 350.140625 170.480469 350.335938 169.886719 350.007812 169.425781 C 349.941406 169.359375 349.941406 169.230469 349.941406 169.097656 C 350.140625 168.175781 349.746094 167.253906 350.140625 166.332031 C 350.207031 166.136719 350.207031 165.871094 350.140625 165.675781 C 349.941406 165.082031 350.007812 164.492188 350.074219 163.832031 C 350.140625 163.042969 350.007812 162.316406 349.746094 161.59375 C 349.546875 161.199219 349.417969 160.738281 349.417969 160.34375 C 349.417969 160.082031 349.285156 159.816406 349.21875 159.554688 C 348.890625 158.960938 348.824219 158.304688 348.957031 157.644531 C 349.085938 156.921875 349.019531 156.261719 348.625 155.605469 C 348.164062 154.816406 348.035156 153.960938 347.96875 153.039062 C 347.902344 151.851562 347.703125 150.734375 347.703125 149.550781 C 347.703125 149.089844 347.507812 148.5625 347.703125 148.101562 C 347.769531 147.902344 347.703125 147.640625 347.640625 147.441406 C 347.046875 146.519531 347.046875 145.269531 346.324219 144.414062 C 346.257812 144.347656 346.257812 144.21875 346.191406 144.085938 C 345.992188 143.03125 345.46875 142.113281 345.269531 141.125 C 345.203125 140.730469 344.941406 140.398438 344.546875 140.269531 C 344.347656 140.203125 344.28125 140.070312 344.28125 139.875 C 344.214844 139.480469 344.214844 139.082031 344.019531 138.753906 C 343.886719 138.425781 343.886719 138.097656 343.953125 137.765625 C 344.019531 137.570312 344.152344 137.304688 344.085938 137.109375 C 343.886719 136.515625 343.886719 135.792969 343.296875 135.332031 C 343.097656 135.199219 343.03125 135.003906 342.964844 134.738281 C 342.636719 133.6875 342.308594 132.632812 341.714844 131.710938 C 341.78125 131.449219 341.78125 131.183594 341.847656 130.921875 C 341.914062 130.527344 341.648438 130.328125 341.519531 130 C 341.453125 129.867188 341.519531 129.605469 341.648438 129.539062 C 341.78125 129.472656 341.914062 129.34375 342.109375 129.277344 C 342.769531 129.078125 343.359375 128.949219 344.019531 128.816406 C 344.28125 128.75 344.546875 128.683594 344.742188 128.488281 C 344.941406 128.289062 345.203125 128.222656 345.46875 128.15625 C 345.796875 128.089844 346.125 128.027344 346.453125 127.894531 C 346.519531 127.894531 346.585938 127.761719 346.519531 127.761719 C 346.453125 127.695312 346.386719 127.566406 346.324219 127.566406 C 345.53125 127.695312 344.675781 127.566406 343.886719 127.894531 C 343.753906 127.960938 343.558594 127.894531 343.425781 127.894531 C 343.230469 127.828125 343.03125 127.695312 342.769531 127.828125 C 342.308594 127.960938 341.980469 127.761719 341.714844 127.5 C 341.1875 127.039062 340.597656 126.644531 340.136719 126.050781 C 339.675781 125.328125 339.148438 124.601562 338.820312 123.746094 C 338.554688 123.023438 338.359375 122.300781 337.832031 121.707031 C 337.632812 121.445312 337.570312 121.113281 337.4375 120.785156 C 337.304688 120.390625 337.171875 120.0625 336.910156 119.734375 C 336.714844 119.535156 336.648438 119.273438 336.515625 119.007812 C 336.316406 118.613281 336.121094 118.351562 335.726562 118.21875 C 335.527344 118.152344 335.332031 118.019531 335.199219 117.890625 C 334.738281 117.429688 334.277344 116.902344 334.410156 116.179688 C 334.539062 115.652344 334.34375 115.191406 334.144531 114.730469 C 333.816406 113.941406 333.621094 113.152344 332.894531 112.625 C 332.765625 112.558594 332.632812 112.359375 332.632812 112.230469 C 332.5 111.503906 332.039062 111.042969 331.578125 110.582031 C 331.25 110.253906 330.855469 109.992188 330.65625 109.660156 C 330.394531 109.203125 330.722656 108.675781 330.722656 108.214844 C 330.722656 108.082031 330.722656 108.015625 330.65625 107.820312 C 330.527344 107.621094 330.394531 107.425781 330.261719 107.160156 C 330.132812 106.898438 330 106.570312 329.800781 106.304688 C 329.605469 106.109375 329.472656 105.910156 329.40625 105.648438 C 329.011719 104.132812 328.945312 104.132812 327.894531 102.949219 C 327.894531 102.816406 327.828125 102.75 327.828125 102.621094 C 327.957031 101.761719 327.761719 101.105469 327.101562 100.511719 C 327.039062 100.445312 326.972656 100.316406 326.90625 100.25 C 326.773438 99.855469 326.378906 99.65625 326.050781 99.527344 C 325.851562 99.394531 325.589844 99.460938 325.457031 99.261719 C 325.0625 98.867188 324.535156 98.472656 324.40625 97.8125 C 324.339844 97.289062 324.074219 96.894531 323.679688 96.5625 C 323.550781 96.433594 323.417969 96.367188 323.351562 96.234375 C 323.152344 95.773438 322.957031 95.3125 322.691406 94.917969 C 322.429688 94.457031 321.96875 94.128906 321.640625 93.601562 C 321.046875 92.613281 320.390625 91.628906 319.929688 90.574219 C 319.863281 90.375 319.664062 90.246094 319.46875 90.113281 C 319.335938 90.046875 319.203125 89.914062 319.074219 89.851562 C 318.808594 89.390625 318.480469 89.058594 318.019531 88.796875 C 317.824219 88.664062 317.558594 88.402344 317.492188 88.203125 C 317.164062 87.152344 316.375 86.425781 315.453125 85.902344 C 315.058594 85.636719 314.597656 85.375 314.335938 84.914062 C 314.070312 84.519531 313.742188 84.320312 313.347656 84.058594 C 313.082031 83.859375 312.820312 83.664062 312.753906 83.269531 C 312.6875 82.9375 312.558594 82.675781 312.292969 82.414062 C 312.03125 82.148438 311.765625 81.820312 311.503906 81.558594 C 311.4375 80.964844 310.976562 80.636719 310.582031 80.242188 C 310.121094 79.84375 309.59375 79.449219 309.332031 78.988281 C 309.003906 78.398438 308.542969 77.9375 308.210938 77.34375 C 308.082031 77.148438 308.082031 76.882812 308.210938 76.6875 C 308.34375 76.421875 308.542969 76.226562 308.609375 75.960938 C 308.804688 75.371094 308.9375 74.777344 309.070312 74.183594 C 309.132812 73.988281 309.070312 73.722656 308.9375 73.527344 C 308.738281 73.066406 308.476562 72.671875 308.34375 72.144531 C 308.148438 71.289062 307.6875 70.628906 307.292969 69.90625 C 307.160156 69.644531 306.960938 69.445312 306.699219 69.378906 C 306.5 69.3125 306.304688 69.25 306.171875 69.050781 C 305.976562 68.722656 305.644531 68.65625 305.316406 68.589844 C 305.054688 68.523438 304.722656 68.589844 304.527344 68.457031 C 303.804688 68.128906 302.945312 67.996094 302.222656 67.472656 C 301.828125 67.207031 301.433594 67.140625 300.972656 67.207031 C 300.183594 67.339844 299.457031 67.40625 298.667969 67.207031 C 298.539062 67.140625 298.339844 67.140625 298.207031 67.078125 C 297.8125 66.617188 297.351562 66.417969 296.824219 66.21875 C 296.429688 66.089844 296.167969 65.824219 295.96875 65.496094 C 295.640625 64.839844 295.179688 64.3125 294.589844 63.917969 C 294.457031 63.851562 294.324219 63.652344 294.257812 63.523438 C 293.996094 63.128906 293.601562 62.929688 293.207031 62.796875 C 292.8125 62.667969 292.414062 62.601562 292.21875 62.269531 C 291.757812 61.546875 290.96875 61.414062 290.375 60.953125 C 290.242188 60.890625 290.046875 60.757812 289.914062 60.757812 C 289.324219 60.757812 288.863281 60.363281 288.464844 60.035156 C 288.007812 59.636719 287.546875 59.242188 287.214844 58.71875 C 286.558594 57.863281 285.769531 57.203125 284.78125 56.742188 C 284.1875 56.480469 283.726562 56.085938 283.332031 55.6875 C 282.871094 55.226562 282.410156 54.769531 281.753906 54.570312 C 281.425781 54.4375 281.09375 54.175781 280.765625 53.976562 C 280.109375 53.386719 279.25 53.054688 278.792969 52.265625 C 278.726562 52.136719 278.527344 52.003906 278.394531 52.003906 C 277.871094 51.871094 277.605469 51.410156 277.210938 51.082031 C 276.75 50.6875 276.160156 50.753906 275.699219 50.421875 C 275.632812 50.421875 275.632812 50.359375 275.566406 50.292969 C 275.238281 49.960938 274.84375 49.765625 274.445312 49.566406 C 274.050781 49.371094 273.722656 49.105469 273.460938 48.710938 C 272.800781 47.855469 271.945312 47.265625 270.894531 46.933594 C 270.628906 46.871094 270.367188 46.671875 270.234375 46.472656 C 269.839844 45.816406 269.246094 45.617188 268.589844 45.488281 C 268.128906 45.355469 267.667969 45.09375 267.273438 44.828125 C 266.484375 44.300781 265.628906 43.972656 264.769531 43.511719 C 264.574219 43.378906 264.3125 43.378906 264.179688 43.25 C 263.785156 42.65625 263.058594 42.523438 262.597656 42.0625 C 262.402344 41.867188 262.136719 41.734375 261.875 41.734375 C 261.546875 41.734375 261.28125 41.539062 261.019531 41.273438 C 260.691406 40.945312 260.363281 40.683594 260.03125 40.417969 C 259.636719 40.089844 259.175781 39.890625 258.648438 39.890625 C 258.1875 39.890625 257.792969 39.695312 257.53125 39.367188 C 257.003906 38.640625 256.28125 38.3125 255.425781 38.179688 C 255.292969 38.179688 255.226562 38.113281 255.09375 38.113281 C 254.636719 38.113281 254.238281 37.917969 253.84375 37.65625 C 253.449219 37.390625 252.988281 37.128906 252.527344 36.863281 C 252.332031 36.863281 252.132812 36.863281 251.9375 36.863281 C 251.410156 36.863281 250.882812 36.667969 250.355469 36.46875 C 249.699219 36.207031 249.105469 35.746094 248.316406 35.8125 C 247.988281 35.613281 247.59375 35.546875 247.328125 35.21875 C 246.867188 34.5625 246.210938 34.164062 245.550781 33.769531 C 245.15625 33.574219 244.761719 33.375 244.433594 33.046875 C 244.167969 32.847656 243.839844 32.71875 243.578125 32.519531 C 243.246094 32.324219 242.984375 32.324219 242.65625 32.390625 C 242.457031 32.453125 242.261719 32.390625 241.996094 32.324219 C 240.945312 31.730469 239.824219 31.269531 238.640625 30.941406 C 238.113281 30.808594 237.585938 30.675781 236.996094 30.675781 C 236.730469 30.675781 236.46875 30.675781 236.207031 30.613281 C 235.546875 30.414062 234.824219 30.214844 234.164062 29.953125 C 233.574219 29.691406 232.847656 29.757812 232.257812 29.359375 C 231.730469 29.359375 231.269531 29.359375 230.742188 29.359375 C 230.675781 29.359375 230.609375 29.359375 230.542969 29.359375 C 230.214844 29.359375 229.886719 29.296875 229.625 29.097656 C 228.964844 28.570312 228.242188 28.441406 227.449219 28.308594 C 226.398438 28.109375 225.34375 28.109375 224.359375 27.78125 C 223.566406 27.914062 222.777344 27.253906 221.921875 27.648438 C 221.726562 27.714844 221.460938 27.582031 221.265625 27.519531 C 220.933594 27.386719 220.671875 27.253906 220.34375 27.253906 C 219.550781 27.320312 218.828125 27.058594 218.171875 26.664062 C 218.039062 26.597656 217.839844 26.53125 217.710938 26.53125 C 216.789062 26.53125 215.867188 26.332031 214.945312 26.265625 C 214.746094 26.265625 214.484375 26.203125 214.285156 26.203125 C 213.761719 26.332031 213.234375 26.398438 212.707031 26.070312 C 212.574219 26.003906 212.378906 26.003906 212.246094 26.003906 C 211.523438 26.136719 210.796875 25.9375 210.140625 25.871094 C 209.351562 25.742188 208.5625 25.808594 207.835938 25.410156 C 207.703125 25.347656 207.507812 25.347656 207.375 25.347656 C 206.585938 25.410156 205.730469 25.347656 205.007812 25.808594 C 204.875 25.871094 204.675781 25.871094 204.546875 25.9375 C 204.347656 25.808594 204.152344 25.742188 203.953125 25.609375 C 203.359375 25.148438 202.703125 24.949219 202.042969 24.621094 C 201.121094 24.160156 200.136719 24.09375 199.148438 24.160156 C 198.425781 24.226562 197.699219 24.09375 197.042969 23.832031 C 196.515625 23.632812 196.054688 23.371094 195.527344 23.175781 C 195.398438 23.109375 195.199219 23.042969 195.066406 23.109375 C 194.539062 23.371094 193.949219 23.175781 193.421875 23.109375 C 192.894531 22.976562 192.367188 22.910156 191.777344 23.109375 C 191.511719 23.175781 191.25 23.175781 190.988281 23.238281 C 190.65625 23.371094 190.328125 23.304688 190 23.175781 C 189.734375 23.042969 189.472656 23.042969 189.210938 22.976562 C 188.75 22.910156 188.289062 22.910156 187.957031 23.238281 C 187.5625 23.570312 187.101562 23.632812 186.578125 23.632812 C 185.984375 23.632812 185.457031 23.570312 184.929688 23.371094 C 184.667969 23.238281 184.40625 23.304688 184.140625 23.371094 C 183.746094 23.503906 183.285156 23.570312 182.890625 23.765625 C 182.429688 24.03125 182.035156 23.832031 181.574219 23.832031 C 181.441406 23.832031 181.246094 23.898438 181.113281 23.964844 C 180.917969 24.03125 180.71875 24.09375 180.457031 23.964844 C 180.324219 23.898438 180.125 23.832031 179.996094 23.765625 C 179.46875 23.503906 178.941406 23.4375 178.414062 23.699219 C 177.691406 24.09375 176.902344 24.03125 176.175781 23.765625 C 175.519531 23.570312 174.859375 23.570312 174.203125 23.699219 C 173.675781 23.832031 173.148438 23.898438 172.558594 23.632812 C 172.359375 23.503906 172.097656 23.570312 171.898438 23.699219 C 171.304688 24.160156 170.648438 24.425781 169.859375 24.09375 C 169.792969 24.03125 169.660156 24.09375 169.527344 24.160156 C 169.132812 24.226562 168.804688 24.359375 168.410156 24.425781 C 168.015625 24.292969 167.621094 24.160156 167.292969 24.09375 C 166.832031 24.03125 166.304688 23.964844 165.84375 24.03125 C 165.449219 24.09375 164.988281 24.292969 164.59375 24.425781 C 163.867188 24.6875 163.144531 24.949219 162.421875 25.214844 C 162.089844 25.347656 161.828125 25.410156 161.433594 25.28125 C 160.90625 25.148438 160.445312 25.214844 159.984375 25.542969 C 159.722656 25.742188 159.394531 25.808594 159.0625 25.871094 C 158.601562 25.9375 158.207031 25.9375 157.746094 25.9375 C 156.5625 25.871094 155.3125 25.871094 154.128906 26.136719 C 153.996094 26.203125 153.796875 26.203125 153.601562 26.136719 C 153.074219 26.070312 152.480469 26.265625 151.957031 26.265625 C 151.296875 26.265625 150.769531 26.53125 150.242188 26.859375 C 150.179688 26.925781 150.046875 26.925781 149.914062 26.925781 C 148.796875 26.925781 147.808594 27.519531 146.625 27.320312 C 146.359375 27.253906 146.097656 27.386719 145.832031 27.453125 C 145.371094 27.519531 144.976562 27.648438 144.515625 27.714844 C 144.054688 27.78125 143.660156 27.847656 143.265625 28.109375 C 143.136719 28.242188 142.871094 28.242188 142.609375 28.242188 C 142.015625 28.175781 141.488281 28.242188 140.964844 28.503906 C 140.699219 28.636719 140.304688 28.570312 139.976562 28.636719 C 139.121094 28.769531 138.265625 28.964844 137.605469 29.625 C 137.539062 29.691406 137.410156 29.757812 137.34375 29.757812 C 136.683594 29.820312 135.894531 29.492188 135.433594 30.347656 C 135.367188 30.480469 135.171875 30.480469 134.972656 30.546875 C 134.777344 30.613281 134.511719 30.613281 134.316406 30.742188 C 133.789062 31.007812 133.261719 31.402344 132.667969 31.53125 C 132.011719 31.730469 131.484375 32.125 130.828125 32.191406 C 130.167969 32.71875 129.378906 32.71875 128.65625 32.914062 C 128.324219 32.980469 127.996094 32.980469 127.667969 33.046875 C 127.46875 33.113281 127.207031 33.113281 127.074219 33.308594 C 126.351562 33.96875 125.496094 34.230469 124.507812 34.296875 C 124.179688 34.296875 123.914062 34.429688 123.585938 34.625 C 123.324219 34.824219 122.929688 34.757812 122.664062 34.957031 C 122.335938 35.152344 122.203125 35.546875 121.875 35.8125 C 121.613281 36.074219 121.21875 36.273438 120.953125 36.46875 C 120.820312 36.535156 120.691406 36.667969 120.558594 36.734375 C 120.359375 36.996094 120.097656 37.128906 119.703125 37.257812 C 118.78125 37.523438 117.925781 37.71875 117.136719 38.378906 C 116.808594 38.640625 116.410156 38.839844 115.953125 38.839844 C 115.621094 38.839844 115.292969 38.972656 115.03125 39.234375 C 114.636719 39.5625 114.238281 39.761719 113.714844 39.761719 C 113.253906 39.828125 112.859375 40.023438 112.59375 40.417969 C 112.398438 40.746094 112.066406 40.945312 111.671875 41.144531 C 111.210938 41.339844 110.75 41.472656 110.226562 41.667969 C 109.765625 42.65625 108.972656 43.25 107.855469 43.511719 C 107.066406 43.972656 106.210938 44.433594 105.421875 44.894531 C 105.355469 44.960938 105.289062 45.027344 105.222656 45.15625 C 105.089844 45.355469 104.894531 45.488281 104.695312 45.488281 C 104.433594 45.554688 104.167969 45.683594 103.90625 45.683594 C 103.378906 45.683594 102.984375 45.949219 102.589844 46.277344 C 102.128906 46.671875 101.601562 46.933594 100.878906 46.804688 C 100.679688 46.738281 100.417969 46.933594 100.285156 47 C 99.957031 47.199219 99.695312 47.527344 99.429688 47.789062 C 99.234375 47.789062 99.101562 47.789062 98.96875 47.789062 C 98.574219 47.789062 98.179688 47.921875 97.980469 48.25 C 97.851562 48.515625 97.71875 48.710938 97.523438 48.976562 C 97.457031 49.105469 97.324219 49.238281 97.191406 49.304688 C 96.46875 49.632812 95.941406 50.226562 95.347656 50.753906 C 94.953125 51.082031 94.558594 51.277344 94.03125 51.34375 C 93.835938 51.34375 93.769531 51.476562 93.703125 51.675781 C 93.636719 51.804688 93.636719 52.003906 93.441406 52.070312 C 93.113281 52.136719 92.847656 52.332031 92.585938 52.59375 C 92.386719 52.859375 92.125 53.054688 91.796875 53.121094 C 91.335938 53.1875 91.003906 53.515625 90.875 53.976562 C 90.808594 54.175781 90.609375 54.371094 90.414062 54.4375 C 89.753906 54.570312 89.164062 54.964844 88.636719 55.292969 C 88.109375 55.625 87.648438 56.148438 87.054688 56.480469 C 86.59375 56.742188 86.464844 57.269531 86.070312 57.53125 C 85.609375 57.859375 85.082031 57.992188 84.621094 58.320312 C 84.292969 58.519531 84.09375 58.914062 83.765625 59.113281 C 83.4375 59.308594 82.976562 59.179688 82.710938 59.507812 C 82.054688 59.703125 81.660156 60.296875 81.066406 60.625 C 80.210938 61.152344 79.289062 61.480469 78.5 62.007812 C 78.433594 62.140625 78.367188 62.269531 78.367188 62.335938 C 78.300781 62.929688 78.039062 63.390625 77.511719 63.652344 C 77.183594 63.785156 76.984375 64.046875 76.789062 64.3125 C 75.867188 65.363281 74.746094 66.21875 73.496094 66.746094 C 73.367188 66.8125 73.167969 66.878906 73.035156 66.945312 C 72.3125 67.667969 71.457031 68.195312 71.0625 69.117188 C 70.863281 69.183594 70.667969 69.3125 70.46875 69.378906 C 69.941406 69.511719 69.613281 69.839844 69.351562 70.300781 C 69.21875 70.5 69.21875 70.695312 69.085938 70.894531 C 68.957031 71.089844 68.757812 71.355469 68.5625 71.484375 C 68.429688 71.617188 68.164062 71.683594 67.96875 71.816406 C 67.375 72.277344 66.785156 72.738281 66.519531 73.394531 C 66.125 74.382812 65.597656 75.238281 64.941406 76.09375 C 64.742188 76.292969 64.613281 76.554688 64.613281 76.816406 C 64.480469 77.609375 64.019531 78.066406 63.296875 78.398438 C 63.03125 78.527344 62.769531 78.660156 62.570312 78.859375 C 62.242188 79.253906 61.914062 79.714844 61.648438 80.175781 C 61.519531 80.4375 61.386719 80.636719 61.1875 80.832031 C 60.925781 81.097656 60.597656 81.359375 60.398438 81.621094 C 60.136719 81.953125 59.804688 82.214844 59.410156 82.476562 C 58.488281 83.136719 57.699219 83.859375 57.304688 84.980469 C 57.171875 85.308594 56.84375 85.636719 56.84375 86.03125 C 56.84375 86.230469 56.648438 86.425781 56.449219 86.558594 C 56.1875 86.824219 55.921875 86.953125 55.726562 87.21875 C 54.9375 88.074219 54.476562 89.058594 54.738281 90.246094 C 54.738281 90.375 54.804688 90.441406 54.804688 90.574219 C 54.738281 90.707031 54.671875 90.835938 54.539062 90.96875 C 54.476562 91.035156 54.34375 91.035156 54.210938 91.101562 C 53.683594 91.167969 53.289062 91.363281 53.027344 91.890625 C 52.765625 92.351562 52.566406 92.878906 51.972656 93.074219 C 51.382812 93.863281 50.722656 94.589844 50.988281 95.773438 C 51.050781 95.972656 50.921875 96.234375 50.789062 96.367188 C 50.722656 96.433594 50.65625 96.496094 50.527344 96.628906 C 50 97.089844 49.734375 97.878906 48.945312 97.945312 C 48.75 98.210938 48.550781 98.472656 48.289062 98.671875 C 47.828125 99 47.695312 99.460938 47.628906 99.988281 C 47.628906 100.183594 47.628906 100.445312 47.628906 100.578125 C 47.5 100.777344 47.367188 100.90625 47.234375 101.039062 C 46.839844 101.433594 46.511719 101.828125 46.3125 102.421875 C 46.246094 102.621094 46.117188 102.816406 46.050781 103.015625 C 45.917969 103.410156 45.722656 103.804688 45.589844 104.265625 C 45.390625 104.726562 44.929688 104.988281 44.667969 105.449219 C 44.46875 105.777344 44.273438 106.109375 44.207031 106.503906 C 44.207031 106.964844 43.945312 107.292969 43.613281 107.621094 C 43.21875 108.015625 42.824219 108.410156 42.429688 108.804688 C 42.101562 109.070312 41.902344 109.332031 41.707031 109.726562 C 41.640625 109.859375 41.574219 110.058594 41.441406 110.121094 C 41.046875 110.453125 40.980469 111.042969 40.652344 111.375 C 40.257812 111.835938 40.191406 112.359375 40.125 112.886719 C 40.125 113.019531 39.996094 113.214844 39.929688 113.347656 C 39.730469 113.609375 39.601562 113.941406 39.46875 114.203125 C 39.269531 114.796875 39.140625 115.386719 38.679688 115.785156 C 38.546875 115.847656 38.546875 116.113281 38.546875 116.242188 C 38.480469 116.640625 38.285156 116.96875 38.019531 117.296875 C 37.757812 117.625 37.558594 118.019531 37.230469 118.351562 C 36.96875 118.613281 36.902344 118.941406 36.902344 119.273438 C 36.902344 119.402344 36.902344 119.46875 36.902344 119.601562 C 36.96875 120.128906 36.835938 120.589844 36.507812 120.984375 C 36.308594 121.179688 36.242188 121.507812 36.046875 121.640625 C 35.453125 122.101562 35.453125 122.957031 34.992188 123.484375 C 34.925781 123.550781 34.859375 123.683594 34.859375 123.746094 C 34.859375 124.078125 34.859375 124.40625 34.859375 124.734375 C 34.792969 125.128906 34.664062 125.457031 34.53125 125.855469 C 34.464844 126.117188 34.269531 126.378906 34.203125 126.578125 C 34.136719 127.171875 33.875 127.761719 33.675781 128.289062 C 33.476562 128.816406 33.476562 129.210938 33.609375 129.738281 C 33.742188 130 33.609375 130.265625 33.476562 130.527344 C 33.347656 130.660156 33.28125 130.789062 33.148438 130.921875 C 32.558594 131.582031 32.160156 132.371094 32.097656 133.292969 C 32.03125 133.949219 31.703125 134.542969 31.898438 135.199219 C 31.765625 135.59375 31.636719 136.054688 31.503906 136.449219 C 31.304688 137.242188 30.84375 137.964844 30.910156 138.820312 C 30.910156 139.082031 30.714844 139.347656 30.515625 139.542969 C 29.925781 140.136719 29.527344 140.859375 29.660156 141.78125 C 29.726562 142.375 29.398438 142.835938 28.9375 143.230469 C 28.671875 143.492188 28.609375 143.824219 28.671875 144.152344 C 28.671875 144.285156 28.804688 144.480469 28.871094 144.613281 C 29.003906 144.941406 29.003906 145.269531 28.804688 145.601562 C 28.476562 146.191406 28.148438 146.71875 27.621094 147.179688 C 27.355469 147.378906 27.292969 147.574219 27.355469 147.835938 C 27.421875 148.101562 27.554688 148.363281 27.488281 148.628906 C 27.355469 148.890625 27.421875 149.152344 27.554688 149.417969 C 27.753906 149.8125 27.949219 150.207031 28.148438 150.601562 C 28.34375 151.0625 28.148438 151.589844 27.753906 151.917969 C 27.160156 152.445312 26.632812 152.972656 26.566406 153.828125 C 26.5 154.417969 26.238281 155.011719 25.84375 155.472656 C 25.449219 156 25.316406 156.59375 25.515625 157.183594 C 25.644531 157.84375 25.515625 158.367188 25.382812 158.960938 C 25.25 159.621094 25.183594 160.277344 24.921875 160.871094 C 24.722656 161.398438 24.660156 161.921875 24.722656 162.515625 C 24.789062 162.976562 24.789062 163.371094 24.921875 163.832031 C 25.054688 164.359375 25.121094 164.949219 24.988281 165.476562 C 24.789062 165.742188 24.59375 166.003906 24.328125 166.203125 C 24.066406 166.464844 24 166.726562 24 167.125 C 24 167.320312 23.933594 167.582031 23.867188 167.78125 C 23.738281 168.042969 23.804688 168.375 23.933594 168.570312 C 24.460938 169.097656 24.527344 169.757812 24.527344 170.414062 C 24.527344 170.941406 24.660156 171.46875 24.660156 172.058594 C 24.660156 172.324219 24.855469 172.585938 24.59375 172.914062 C 24.394531 172.980469 24.199219 173.179688 23.933594 173.246094 C 23.539062 173.441406 23.210938 173.769531 22.945312 174.101562 C 22.75 174.363281 22.683594 174.625 22.816406 174.890625 C 23.011719 175.285156 23.078125 175.746094 23.078125 176.207031 C 23.078125 176.667969 23.078125 177.195312 23.472656 177.589844 C 23.40625 178.179688 23.804688 178.511719 24.199219 178.773438 C 24.261719 178.773438 24.261719 178.839844 24.261719 178.90625 C 24.261719 178.972656 24.261719 179.101562 24.199219 179.167969 C 24.132812 179.234375 24 179.300781 23.933594 179.300781 C 23.933594 179.367188 24 179.367188 24 179.433594 C 24.328125 179.828125 24.394531 179.828125 24.132812 180.222656 C 23.933594 180.484375 23.867188 180.8125 23.867188 181.144531 C 23.867188 181.667969 23.867188 182.261719 23.867188 182.789062 C 24.460938 183.183594 24.460938 183.183594 24.460938 183.644531 C 24.460938 184.5 24.527344 185.421875 23.933594 186.144531 C 23.867188 186.277344 23.867188 186.472656 23.804688 186.605469 C 23.738281 187.066406 23.738281 187.59375 23.738281 188.121094 C 23.804688 188.710938 24 189.304688 24 189.898438 C 23.933594 190.820312 24.261719 191.738281 24 192.660156 C 24 192.726562 24 192.792969 24 192.859375 C 24.066406 193.648438 24.132812 194.371094 24.199219 195.164062 C 24.261719 195.558594 24.199219 195.886719 24.066406 196.28125 C 23.933594 196.609375 24.066406 196.941406 24.328125 197.136719 C 24.460938 197.203125 24.527344 197.402344 24.59375 197.53125 C 24.460938 197.863281 24.328125 198.125 24.199219 198.453125 C 23.933594 199.046875 24.066406 199.769531 23.804688 200.363281 C 23.867188 200.824219 23.867188 201.21875 23.933594 201.679688 C 24 201.875 24.132812 202.074219 24.261719 202.207031 C 24.328125 202.335938 24.460938 202.402344 24.59375 202.535156 C 24.527344 202.863281 24.527344 203.191406 24.460938 203.523438 C 24.394531 203.785156 24.394531 204.046875 24.328125 204.3125 C 24.199219 204.773438 24.261719 205.167969 24.328125 205.628906 C 24.328125 205.824219 24.460938 206.023438 24.660156 206.15625 C 24.789062 206.21875 24.921875 206.351562 25.054688 206.484375 C 24.988281 206.8125 25.054688 207.078125 24.921875 207.339844 C 24.789062 207.734375 24.855469 208.128906 25.054688 208.457031 C 25.121094 208.589844 25.183594 208.789062 25.25 208.917969 C 25.910156 209.839844 26.039062 210.828125 25.710938 211.945312 C 25.644531 212.144531 25.710938 212.40625 25.84375 212.539062 C 26.039062 212.738281 26.238281 212.933594 26.4375 213.132812 C 26.699219 213.394531 26.832031 213.660156 26.765625 213.988281 C 26.632812 214.710938 26.960938 215.5 26.566406 216.292969 C 26.5 216.488281 26.566406 216.75 26.566406 216.949219 C 26.765625 217.9375 27.160156 218.859375 27.816406 219.582031 C 28.277344 220.109375 28.34375 220.765625 28.210938 221.425781 C 28.015625 222.082031 27.882812 222.742188 27.816406 223.332031 C 27.816406 223.53125 27.882812 223.792969 28.015625 223.925781 C 28.148438 224.125 28.277344 224.320312 28.476562 224.386719 C 28.9375 224.585938 29.132812 224.980469 29.265625 225.375 C 29.332031 225.570312 29.398438 225.835938 29.464844 226.03125 C 29.59375 226.363281 29.332031 226.824219 29.660156 227.152344 C 29.988281 227.480469 29.726562 227.875 29.859375 228.269531 C 29.925781 228.46875 29.988281 228.664062 30.054688 228.929688 C 30.121094 229.257812 30.253906 229.585938 30.320312 229.914062 C 30.386719 230.574219 30.648438 231.101562 31.109375 231.5625 C 31.304688 231.824219 31.570312 232.023438 31.765625 232.351562 C 31.898438 232.546875 31.964844 232.746094 31.964844 232.945312 C 31.964844 233.140625 31.964844 233.40625 31.898438 233.601562 C 31.832031 233.996094 31.964844 234.390625 32.160156 234.722656 C 32.425781 235.117188 32.6875 235.445312 33.019531 235.773438 C 33.28125 235.972656 33.214844 236.367188 32.953125 236.628906 C 32.886719 236.695312 32.820312 236.761719 32.6875 236.828125 C 32.292969 237.023438 32.359375 237.355469 32.425781 237.683594 C 32.492188 237.8125 32.558594 238.011719 32.621094 238.144531 C 32.953125 238.472656 33.082031 238.867188 33.082031 239.328125 C 33.019531 239.855469 33.28125 240.316406 33.675781 240.644531 C 33.875 240.84375 34.136719 240.972656 34.269531 241.433594 C 34.335938 242.160156 34.664062 243.015625 34.730469 243.871094 C 34.730469 244.066406 34.859375 244.332031 34.992188 244.460938 C 35.386719 244.792969 35.453125 245.316406 35.652344 245.777344 C 35.914062 246.304688 35.914062 246.832031 35.847656 247.359375 C 35.914062 247.488281 35.980469 247.554688 36.109375 247.621094 C 36.570312 247.886719 36.835938 248.28125 36.96875 248.804688 C 37.164062 249.53125 37.363281 250.1875 37.558594 250.847656 C 37.625 251.042969 37.558594 251.308594 37.558594 251.503906 C 37.558594 251.636719 37.558594 251.898438 37.625 251.964844 C 38.21875 252.292969 38.21875 253.019531 38.679688 253.414062 C 39.269531 254.007812 39.535156 254.863281 39.730469 255.652344 C 39.601562 256.242188 39.929688 256.640625 40.324219 256.96875 C 40.851562 257.429688 41.113281 258.019531 41.246094 258.679688 C 41.3125 259.207031 41.507812 259.667969 41.835938 260.0625 C 42.035156 260.324219 42.101562 260.652344 42.167969 260.984375 C 42.296875 261.640625 42.5625 262.101562 43.21875 262.367188 C 43.417969 262.429688 43.613281 262.628906 43.613281 262.890625 C 43.550781 263.878906 44.273438 264.601562 44.535156 265.523438 C 44.601562 265.722656 44.800781 265.855469 44.996094 265.984375 C 45.523438 266.25 45.917969 266.578125 45.984375 267.234375 C 46.378906 267.761719 46.378906 268.550781 47.101562 268.816406 C 47.300781 269.144531 47.5 269.472656 47.628906 269.867188 C 47.761719 270.132812 47.894531 270.394531 48.15625 270.460938 C 48.484375 270.59375 48.683594 270.855469 48.75 271.183594 C 48.945312 271.710938 49.078125 272.238281 49.40625 272.699219 C 50 273.621094 50.527344 274.609375 50.988281 275.59375 C 51.117188 275.859375 51.25 276.121094 51.511719 276.253906 C 52.238281 276.648438 52.632812 277.503906 53.554688 277.636719 C 53.683594 277.636719 53.816406 277.832031 53.949219 277.964844 C 54.082031 278.097656 54.210938 278.359375 54.410156 278.425781 C 55.132812 278.886719 55.460938 279.542969 55.59375 280.335938 C 55.660156 280.53125 55.660156 280.796875 55.792969 280.925781 C 56.121094 281.519531 56.449219 282.113281 56.84375 282.570312 C 57.4375 283.296875 57.898438 284.152344 58.292969 285.007812 C 58.554688 285.601562 58.949219 286.191406 59.28125 286.71875 C 59.410156 286.917969 59.542969 287.113281 59.742188 287.179688 C 60.136719 287.3125 60.398438 287.574219 60.53125 287.96875 C 60.726562 288.429688 61.058594 288.824219 61.320312 289.21875 C 61.980469 290.074219 62.636719 290.867188 63.492188 291.523438 C 63.820312 291.785156 64.085938 292.050781 64.152344 292.445312 C 64.214844 293.367188 64.808594 293.894531 65.46875 294.484375 C 65.664062 294.617188 65.796875 294.75 65.992188 294.878906 C 66.453125 295.144531 66.785156 295.472656 66.980469 295.933594 C 67.246094 296.527344 67.703125 296.921875 68.164062 297.25 C 68.296875 297.382812 68.5625 297.316406 68.824219 297.382812 C 68.890625 297.578125 68.957031 297.777344 69.085938 297.972656 C 69.152344 298.171875 69.21875 298.371094 69.351562 298.566406 C 69.546875 299.027344 69.878906 299.160156 70.402344 299.09375 C 70.601562 299.027344 70.796875 298.960938 71.0625 298.894531 C 71.195312 299.09375 71.390625 299.226562 71.457031 299.421875 C 71.652344 299.882812 71.71875 300.34375 71.851562 300.871094 C 71.917969 301.199219 72.113281 301.460938 72.511719 301.527344 C 73.234375 301.59375 73.5625 301.988281 73.761719 302.648438 C 73.828125 302.910156 73.890625 303.175781 74.023438 303.4375 C 74.222656 303.898438 74.550781 304.226562 75.144531 304.292969 C 76 304.359375 76.789062 304.6875 77.511719 305.015625 C 77.777344 305.148438 77.972656 305.347656 78.039062 305.609375 C 78.171875 306.464844 78.433594 307.1875 79.222656 307.648438 C 79.488281 307.78125 79.617188 308.175781 79.882812 308.375 C 80.210938 308.636719 80.539062 308.964844 80.738281 309.359375 C 80.867188 309.625 81.066406 309.820312 81.199219 310.085938 C 81.460938 310.613281 81.921875 310.875 82.515625 311.074219 C 83.042969 311.203125 83.566406 311.269531 84.160156 311.335938 C 84.621094 311.402344 84.753906 311.535156 84.882812 312.125 C 84.949219 312.257812 84.882812 312.519531 85.015625 312.585938 C 85.34375 312.914062 85.476562 313.308594 85.675781 313.707031 C 85.871094 314.167969 86.132812 314.363281 86.59375 314.167969 C 86.726562 314.101562 86.792969 314.101562 86.925781 314.101562 C 87.1875 314.035156 87.386719 314.101562 87.515625 314.296875 C 87.976562 315.21875 88.636719 315.878906 89.6875 316.207031 C 90.019531 316.273438 90.214844 316.601562 90.414062 316.863281 C 90.542969 317.128906 90.675781 317.324219 90.808594 317.589844 C 91.003906 317.917969 91.269531 318.050781 91.597656 318.179688 C 91.859375 318.246094 92.125 318.3125 92.386719 318.378906 C 92.585938 318.445312 92.847656 318.511719 92.914062 318.707031 C 93.175781 319.433594 93.835938 319.761719 94.429688 320.15625 C 94.625 320.289062 94.890625 320.351562 94.953125 320.484375 C 95.414062 321.144531 96.074219 321.539062 96.796875 321.867188 C 96.996094 321.933594 97.191406 322.128906 97.324219 322.195312 C 97.652344 322.394531 97.980469 322.589844 98.378906 322.65625 C 98.773438 322.722656 99.101562 322.921875 99.296875 323.25 C 99.757812 323.839844 100.351562 324.238281 101.074219 324.300781 C 101.273438 324.300781 101.535156 324.367188 101.667969 324.5 C 102.0625 324.894531 102.523438 325.222656 102.917969 325.617188 C 103.578125 326.210938 105.089844 327.460938 105.816406 327.789062 C 106.539062 328.121094 107.261719 328.710938 108.183594 328.316406 C 108.25 328.316406 108.316406 328.316406 108.382812 328.316406 C 109.105469 328.449219 109.765625 328.648438 110.488281 328.84375 C 110.621094 328.84375 110.6875 329.105469 110.75 329.238281 C 110.816406 329.371094 110.75 329.566406 110.75 329.699219 C 111.34375 330.226562 111.871094 330.753906 112.59375 331.148438 C 113.054688 331.804688 113.910156 331.9375 114.371094 332.597656 C 114.503906 332.726562 114.765625 332.859375 114.964844 332.859375 C 115.953125 332.925781 116.675781 333.648438 117.597656 333.847656 C 117.726562 333.847656 117.859375 334.042969 117.992188 334.175781 C 118.1875 334.371094 118.386719 334.570312 118.585938 334.769531 C 118.914062 335.03125 119.242188 335.164062 119.636719 335.164062 C 120.757812 335.164062 121.808594 335.425781 122.796875 335.953125 C 123.058594 336.085938 123.257812 336.28125 123.519531 336.28125 C 124.113281 336.28125 124.574219 336.609375 125.035156 336.875 C 125.890625 337.402344 126.679688 337.992188 127.535156 338.453125 C 128.0625 338.78125 128.589844 338.980469 129.246094 338.652344 C 129.707031 338.453125 130.234375 338.519531 130.628906 338.980469 C 130.957031 339.308594 131.289062 339.507812 131.683594 339.769531 C 132.339844 340.164062 133.066406 340.429688 133.722656 340.890625 C 134.183594 341.21875 134.710938 341.414062 135.300781 341.351562 C 135.828125 341.285156 136.289062 341.480469 136.617188 341.941406 C 137.144531 342.667969 138 342.863281 138.792969 342.996094 C 139.582031 343.0625 140.4375 343.128906 141.226562 343.191406 C 141.554688 343.457031 141.820312 343.71875 142.082031 343.984375 C 142.742188 344.574219 143.398438 344.902344 144.253906 345.101562 C 144.847656 345.234375 145.4375 345.300781 145.964844 345.761719 C 146.359375 346.089844 146.753906 346.089844 147.214844 345.890625 C 147.675781 345.695312 148.070312 346.089844 148.53125 345.824219 C 148.796875 345.890625 149.058594 346.023438 149.324219 346.089844 C 149.585938 346.15625 149.914062 346.21875 150.046875 346.484375 C 150.308594 347.078125 151.035156 347.207031 151.429688 347.601562 C 152.152344 347.867188 152.875 348.195312 153.667969 348.0625 C 154.324219 347.933594 154.984375 348.0625 155.574219 348.328125 C 156.300781 348.65625 157.023438 348.917969 157.8125 348.984375 C 158.472656 349.050781 159.195312 348.984375 159.789062 349.183594 C 160.445312 349.378906 161.105469 349.378906 161.695312 349.578125 C 162.222656 349.710938 162.75 349.90625 163.277344 350.039062 C 163.472656 350.105469 163.738281 350.105469 163.933594 350.039062 C 164.394531 349.839844 164.855469 349.644531 165.25 350.105469 C 165.644531 350.171875 165.976562 350.300781 166.371094 350.300781 C 166.960938 350.367188 167.554688 350.367188 168.210938 350.433594 C 168.476562 350.433594 168.738281 350.5 169.003906 350.695312 C 169.59375 351.089844 170.253906 351.222656 170.910156 351.15625 C 171.636719 351.089844 172.226562 351.222656 172.820312 351.488281 C 173.28125 351.683594 173.675781 351.683594 174.136719 351.617188 C 174.859375 351.488281 175.585938 351.421875 176.242188 351.289062 C 176.769531 351.15625 177.164062 351.089844 177.691406 351.355469 C 177.953125 351.488281 178.347656 351.488281 178.679688 351.488281 C 179.863281 351.488281 180.980469 351.816406 182.167969 351.75 C 182.296875 351.75 182.429688 351.75 182.496094 351.816406 C 182.957031 352.078125 183.484375 351.945312 183.945312 351.816406 C 184.339844 351.683594 184.667969 351.683594 185.0625 351.882812 C 185.390625 352.078125 185.65625 352.078125 185.984375 352.011719 C 187.101562 351.683594 188.15625 351.75 189.273438 351.945312 C 189.671875 352.011719 190.066406 352.078125 190.460938 352.011719 C 191.25 351.882812 192.105469 352.011719 192.894531 351.882812 C 193.949219 351.75 195 351.816406 196.054688 351.683594 C 196.449219 351.617188 196.84375 351.75 197.238281 351.683594 C 198.09375 351.488281 199.015625 351.488281 199.871094 351.550781 C 200.136719 351.550781 200.332031 351.488281 200.464844 351.289062 C 200.53125 351.222656 200.597656 351.089844 200.664062 351.027344 C 200.992188 350.695312 201.386719 350.566406 201.847656 350.761719 C 202.109375 350.894531 202.375 351.027344 202.636719 351.027344 C 203.625 350.960938 204.613281 351.289062 205.53125 350.628906 C 205.863281 350.433594 206.191406 350.695312 206.519531 350.628906 C 207.179688 350.367188 207.769531 350.300781 208.496094 350.433594 C 208.824219 350.5 209.152344 350.367188 209.417969 350.234375 C 209.746094 350.039062 210.140625 349.90625 210.335938 349.578125 C 210.46875 349.378906 210.601562 349.25 210.796875 349.117188 C 211.523438 348.855469 212.246094 348.523438 213.035156 348.65625 C 213.496094 348.722656 213.890625 348.65625 214.285156 348.394531 C 214.617188 348.195312 214.878906 348.195312 215.273438 348.328125 C 215.933594 348.523438 216.589844 348.394531 217.25 348.261719 C 217.777344 348.128906 218.300781 347.996094 218.894531 347.933594 C 219.355469 347.800781 219.882812 347.734375 220.34375 347.667969 C 220.738281 347.601562 221.132812 347.472656 221.328125 347.140625 C 221.789062 346.484375 222.316406 346.15625 223.171875 346.351562 C 223.371094 346.417969 223.632812 346.285156 223.832031 346.222656 C 224.226562 346.089844 224.554688 345.890625 224.949219 345.824219 C 225.34375 345.761719 225.675781 345.5625 225.9375 345.300781 C 226.132812 345.101562 226.464844 345.035156 226.726562 345.167969 C 227.515625 345.5625 228.371094 345.429688 229.164062 345.234375 C 229.953125 345.101562 230.675781 344.90625 231.464844 345.035156 C 232.125 345.101562 232.652344 344.96875 233.242188 344.640625 C 233.703125 344.378906 234.097656 344.113281 234.558594 343.917969 C 234.757812 343.785156 234.953125 343.71875 235.152344 343.71875 C 236.207031 343.851562 237.191406 343.324219 238.246094 343.523438 C 238.507812 343.589844 238.839844 343.457031 239.035156 343.390625 C 239.5625 343.128906 240.21875 343.0625 240.617188 342.535156 C 241.40625 342.335938 242.128906 341.941406 242.984375 341.746094 C 243.511719 341.613281 244.105469 341.480469 244.433594 341.019531 C 244.761719 340.625 245.15625 340.429688 245.75 340.429688 C 246.800781 340.429688 247.722656 339.703125 248.84375 339.902344 C 248.910156 339.902344 249.039062 339.835938 249.171875 339.769531 C 249.832031 339.308594 250.6875 339.308594 251.410156 339.308594 C 252.066406 339.308594 252.726562 339.308594 253.320312 338.914062 C 254.238281 338.78125 254.832031 338.324219 255.226562 337.53125 C 255.425781 337.203125 255.753906 336.941406 256.148438 336.808594 C 256.542969 336.675781 256.871094 336.609375 257.269531 336.480469 C 257.597656 336.414062 257.925781 336.414062 258.253906 336.28125 C 259.570312 335.753906 260.820312 335.03125 262.136719 334.375 C 262.335938 334.242188 262.46875 334.109375 262.664062 333.976562 C 262.863281 333.78125 263.125 333.648438 263.390625 333.582031 C 263.914062 333.453125 264.3125 333.1875 264.640625 332.792969 C 264.902344 332.53125 265.230469 332.332031 265.5625 332.070312 C 266.21875 332.003906 266.613281 331.542969 267.207031 331.34375 C 268.0625 331.015625 268.65625 330.359375 268.851562 329.4375 C 268.851562 329.371094 268.984375 329.238281 269.050781 329.105469 C 269.378906 328.910156 269.773438 328.710938 270.167969 328.515625 C 270.367188 328.449219 270.5625 328.316406 270.761719 328.316406 C 271.351562 328.316406 271.8125 328.054688 272.339844 327.789062 C 272.800781 327.527344 273.195312 327.332031 273.65625 327.132812 C 274.511719 326.738281 275.300781 326.277344 275.960938 325.554688 C 276.222656 325.289062 276.488281 325.15625 276.75 325.027344 C 277.078125 324.894531 277.410156 324.828125 277.671875 324.699219 C 278.199219 324.433594 278.792969 324.238281 279.121094 323.644531 C 279.25 323.382812 279.515625 323.25 279.777344 323.183594 C 280.171875 323.050781 280.4375 322.789062 280.699219 322.523438 C 281.425781 321.605469 282.34375 320.878906 283.265625 320.222656 C 283.792969 319.828125 284.320312 319.628906 284.976562 319.695312 C 285.570312 319.761719 286.097656 319.433594 286.359375 318.90625 C 286.691406 318.179688 287.148438 317.589844 287.808594 317.128906 C 288.070312 316.929688 288.269531 316.601562 288.464844 316.402344 C 288.664062 316.207031 288.863281 316.007812 289.058594 315.878906 C 289.652344 315.546875 290.113281 315.085938 290.574219 314.5625 C 290.902344 314.230469 291.230469 314.035156 291.691406 313.902344 C 291.890625 313.835938 292.152344 313.769531 292.351562 313.769531 C 292.679688 313.707031 292.941406 313.507812 293.074219 313.179688 C 293.207031 312.914062 293.335938 312.71875 293.46875 312.453125 C 293.535156 312.390625 293.601562 312.324219 293.667969 312.324219 C 294.589844 311.992188 295.3125 311.46875 295.640625 310.414062 C 295.707031 310.21875 295.90625 310.085938 296.167969 310.019531 C 297.089844 309.691406 297.679688 309.097656 298.078125 308.242188 C 298.140625 308.109375 298.207031 308.042969 298.273438 307.914062 C 299.0625 307.585938 299.722656 306.992188 300.445312 306.464844 C 301.171875 305.9375 301.761719 305.347656 302.222656 304.554688 C 302.550781 303.964844 303.011719 303.503906 303.605469 303.175781 C 304.199219 302.84375 304.722656 302.515625 305.054688 301.859375 C 305.183594 301.59375 305.449219 301.460938 305.578125 301.199219 C 305.84375 300.804688 306.171875 300.410156 306.4375 299.949219 C 306.699219 299.355469 307.09375 298.960938 307.621094 298.632812 C 308.210938 298.304688 308.609375 297.777344 308.871094 297.117188 C 308.9375 296.789062 309.199219 296.527344 309.398438 296.328125 C 310.320312 295.539062 310.976562 294.617188 311.371094 293.5625 C 311.636719 293.433594 311.765625 293.300781 311.964844 293.234375 C 312.425781 292.972656 312.6875 292.644531 312.953125 292.183594 C 313.414062 291.195312 314.070312 290.40625 315.191406 290.207031 C 315.253906 290.207031 315.320312 290.207031 315.320312 290.140625 C 315.519531 290.011719 315.78125 289.878906 315.847656 289.746094 C 316.046875 289.15625 316.636719 288.824219 316.835938 288.234375 C 316.902344 288.101562 317.03125 287.96875 317.164062 287.902344 C 317.363281 287.773438 317.691406 287.640625 317.886719 287.507812 C 318.480469 287.046875 318.875 286.457031 318.808594 285.664062 C 318.742188 284.808594 319.007812 284.152344 319.664062 283.625 C 319.929688 283.429688 320.058594 283.097656 320.324219 282.902344 C 320.71875 282.574219 320.980469 282.175781 321.113281 281.652344 C 321.246094 281.191406 321.507812 280.859375 321.835938 280.597656 C 322.296875 280.203125 322.5625 279.808594 322.757812 279.214844 C 322.824219 279.019531 322.957031 278.820312 323.089844 278.625 C 323.484375 278.164062 323.945312 277.765625 324.40625 277.371094 C 324.601562 277.175781 324.734375 276.976562 324.800781 276.648438 C 324.929688 276.320312 325.0625 275.859375 325.324219 275.660156 C 326.183594 274.9375 326.640625 273.882812 327.5625 273.226562 C 327.761719 273.027344 327.828125 272.765625 327.828125 272.4375 C 327.828125 272.304688 327.828125 272.238281 327.761719 272.105469 C 327.5 271.316406 327.828125 270.660156 328.417969 270.199219 C 329.078125 269.605469 329.671875 268.949219 329.933594 268.09375 C 330 267.960938 330.066406 267.761719 330.132812 267.632812 C 330.328125 267.105469 330.65625 266.710938 331.117188 266.316406 C 331.972656 265.722656 332.433594 264.867188 332.5 263.8125 C 332.5 263.285156 332.632812 262.828125 332.699219 262.367188 C 332.765625 262.167969 332.765625 261.90625 332.894531 261.707031 C 333.355469 260.984375 333.621094 260.195312 333.949219 259.46875 C 334.082031 259.140625 334.277344 258.941406 334.605469 258.746094 C 334.804688 258.613281 335 258.480469 335 258.285156 C 335.265625 257.363281 335.792969 256.574219 335.726562 255.585938 C 335.726562 255.257812 335.921875 254.992188 336.121094 254.730469 C 336.714844 254.007812 337.042969 253.214844 336.777344 252.292969 C 336.648438 251.835938 336.777344 251.4375 337.171875 251.109375 C 337.4375 250.847656 337.632812 250.582031 337.898438 250.453125 C 338.359375 250.121094 338.6875 249.660156 338.820312 249.136719 C 338.949219 248.410156 339.609375 247.949219 339.804688 247.226562 C 339.871094 246.964844 340.136719 246.832031 340.332031 246.632812 C 340.726562 246.238281 340.925781 245.710938 340.925781 245.121094 C 340.925781 244.726562 340.992188 244.332031 341.121094 244 C 341.519531 242.882812 341.980469 241.828125 341.914062 240.644531 C 342.109375 240.117188 342.175781 239.589844 342.175781 239 C 342.175781 238.671875 342.4375 238.339844 342.769531 238.273438 C 343.164062 238.144531 343.230469 237.878906 343.296875 237.550781 C 343.425781 236.433594 343.558594 235.378906 344.414062 234.523438 C 344.742188 233.800781 345.269531 233.207031 345.269531 232.417969 C 345.335938 231.691406 345.597656 231.167969 346.125 230.707031 C 346.453125 230.441406 346.453125 230.046875 346.257812 229.652344 C 346.125 229.257812 346.191406 228.863281 346.453125 228.535156 C 346.585938 228.335938 346.785156 228.203125 346.914062 228.007812 C 347.308594 227.480469 347.574219 226.886719 347.308594 226.164062 C 347.179688 225.835938 347.246094 225.507812 347.441406 225.175781 C 347.902344 224.585938 347.96875 223.859375 348.035156 223.136719 C 348.101562 222.414062 348.230469 221.6875 348.296875 221.03125 C 348.363281 220.304688 348.757812 219.648438 348.691406 218.925781 C 348.691406 218.792969 348.824219 218.59375 348.890625 218.464844 C 349.085938 218.199219 349.285156 217.9375 349.480469 217.609375 C 349.480469 217.410156 349.480469 217.210938 349.417969 216.949219 C 349.351562 216.355469 349.417969 215.765625 349.746094 215.171875 C 350.074219 214.644531 350.207031 214.054688 350.402344 213.460938 C 350.667969 212.800781 350.796875 212.078125 350.734375 211.355469 C 350.734375 210.828125 350.667969 210.367188 350.734375 209.839844 C 350.929688 209.050781 350.796875 208.328125 350.863281 207.535156 C 350.863281 206.878906 350.796875 206.21875 351.0625 205.5625 C 351.195312 205.300781 351.195312 205.035156 351.128906 204.773438 C 351.0625 204.378906 351.128906 203.984375 351.324219 203.652344 C 351.457031 203.457031 351.390625 203.257812 351.324219 202.996094 C 351.257812 202.667969 351.195312 202.335938 351.0625 202.007812 C 350.734375 201.285156 350.535156 200.558594 351.0625 199.835938 C 351.128906 199.769531 351.128906 199.636719 351.128906 199.507812 C 351.195312 198.980469 351.195312 198.386719 351.324219 197.863281 C 351.390625 197.664062 351.324219 197.402344 351.257812 197.203125 C 351.195312 196.675781 351.195312 196.214844 351.128906 195.6875 C 351.0625 194.769531 351.0625 193.847656 351.457031 192.925781 C 351.71875 192.398438 351.71875 191.871094 351.589844 191.28125 C 351.457031 190.820312 351.523438 190.421875 351.71875 189.964844 C 351.851562 189.699219 351.785156 189.4375 351.851562 189.171875 C 351.984375 188.449219 351.71875 187.726562 352.246094 187.066406 C 352.246094 187 352.3125 186.933594 352.246094 186.933594 C 351.390625 186.605469 351.71875 186.078125 351.785156 185.554688 Z M 337.632812 188.644531 C 337.570312 188.84375 337.4375 189.042969 337.304688 189.238281 C 336.777344 189.898438 336.714844 190.621094 336.714844 191.410156 C 336.777344 192.726562 336.777344 194.042969 336.84375 195.359375 C 336.84375 195.886719 336.777344 196.347656 336.382812 196.742188 C 336.1875 196.941406 336.1875 197.269531 336.316406 197.53125 C 336.714844 198.257812 336.449219 199.046875 336.382812 199.835938 C 336.316406 200.363281 336.121094 200.890625 335.792969 201.351562 C 335.59375 201.546875 335.460938 201.8125 335.332031 202.007812 C 335.265625 202.140625 335.132812 202.335938 335.199219 202.46875 C 335.332031 203.585938 334.804688 204.507812 334.476562 205.496094 C 334.082031 205.824219 334.476562 206.089844 334.539062 206.417969 C 334.277344 206.8125 334.015625 207.207031 333.75 207.601562 C 333.554688 207.867188 333.488281 208.195312 333.621094 208.523438 C 333.882812 209.183594 333.882812 209.773438 333.621094 210.433594 C 333.488281 210.695312 333.554688 210.960938 333.554688 211.222656 C 333.554688 211.550781 333.554688 211.882812 333.355469 212.210938 C 333.09375 212.605469 333.027344 213 333.160156 213.460938 C 333.222656 213.722656 333.160156 213.988281 333.027344 214.25 C 332.765625 214.644531 332.566406 215.105469 332.566406 215.632812 C 332.566406 215.832031 332.433594 216.027344 332.367188 216.226562 C 332.304688 216.355469 332.238281 216.421875 332.238281 216.488281 C 332.304688 217.34375 331.644531 218.003906 331.644531 218.859375 C 331.644531 219.320312 331.449219 219.714844 331.316406 220.109375 C 331.25 220.4375 331.117188 220.765625 331.117188 221.097656 C 331.117188 221.953125 330.789062 222.742188 330.261719 223.398438 C 329.933594 223.792969 329.800781 224.253906 329.671875 224.714844 C 329.40625 225.703125 329.339844 226.691406 329.339844 227.679688 C 329.339844 228.535156 329.144531 229.324219 329.011719 230.113281 C 328.945312 230.507812 328.75 230.835938 328.550781 231.167969 C 328.355469 231.5625 328.222656 232.023438 328.15625 232.417969 C 328.089844 232.878906 328.289062 233.339844 328.089844 233.734375 C 327.894531 234.0625 327.894531 234.457031 327.828125 234.851562 C 327.761719 235.3125 327.5 235.707031 327.433594 236.101562 C 327.300781 236.496094 327.234375 236.957031 327.234375 237.417969 C 327.167969 237.945312 327.039062 238.472656 326.773438 239 C 326.445312 239.65625 326.183594 240.445312 325.917969 241.171875 C 325.851562 241.367188 325.851562 241.632812 325.851562 241.828125 C 325.851562 242.160156 325.851562 242.488281 325.851562 242.816406 C 325.851562 242.949219 325.785156 243.210938 325.65625 243.277344 C 325.195312 243.539062 325.128906 243.9375 325.0625 244.394531 C 324.996094 245.054688 324.800781 245.710938 324.40625 246.238281 C 324.140625 246.570312 324.207031 246.832031 324.273438 247.160156 C 324.339844 247.359375 324.273438 247.621094 324.074219 247.753906 C 323.285156 248.214844 323.089844 249.203125 322.363281 249.726562 C 322.234375 249.792969 322.234375 249.992188 322.167969 250.1875 C 322.101562 250.386719 322.035156 250.582031 321.835938 250.714844 C 321.773438 250.78125 321.640625 250.847656 321.574219 250.914062 C 321.179688 251.636719 320.785156 252.359375 320.324219 253.019531 C 320.257812 253.152344 320.257812 253.347656 320.191406 253.480469 C 320.125 253.742188 319.996094 254.007812 319.796875 254.203125 C 319.140625 254.863281 318.414062 255.519531 317.824219 256.179688 C 316.96875 257.164062 316.175781 258.085938 315.652344 259.273438 C 315.585938 259.402344 315.585938 259.46875 315.519531 259.601562 C 315.125 259.996094 314.992188 260.589844 314.597656 260.984375 C 314.269531 261.3125 314.398438 261.574219 314.398438 261.90625 C 314.398438 261.96875 314.398438 262.035156 314.335938 262.234375 C 314.269531 262.234375 314.136719 262.367188 314.003906 262.429688 C 313.609375 262.761719 313.347656 263.15625 313.28125 263.683594 C 313.082031 264.734375 312.6875 265.722656 312.558594 266.773438 C 312.558594 267.105469 312.425781 267.433594 312.292969 267.695312 C 311.898438 268.289062 311.765625 268.882812 311.636719 269.539062 C 311.570312 269.867188 311.4375 270.132812 311.042969 270.328125 C 310.648438 270.527344 310.449219 270.855469 310.386719 271.25 C 310.253906 271.84375 309.925781 272.238281 309.59375 272.632812 C 309.265625 273.09375 308.738281 273.292969 308.476562 273.882812 C 308.277344 274.34375 307.882812 274.671875 307.554688 275.070312 C 307.027344 275.792969 306.4375 276.449219 305.710938 276.976562 C 305.382812 277.242188 305.121094 277.503906 304.855469 277.765625 C 304.132812 278.558594 303.34375 279.414062 302.550781 280.269531 C 302.550781 280.398438 302.488281 280.597656 302.421875 280.796875 C 302.355469 281.058594 302.289062 281.320312 302.027344 281.519531 C 301.5 281.980469 301.171875 282.570312 300.773438 283.097656 C 300.578125 283.363281 300.445312 283.691406 300.378906 284.019531 C 300.183594 284.875 299.789062 285.601562 299.0625 286.0625 C 298.867188 286.191406 298.667969 286.390625 298.472656 286.585938 C 298.140625 286.917969 297.8125 287.3125 297.351562 287.574219 C 297.023438 287.773438 296.824219 288.101562 296.695312 288.496094 C 296.628906 288.628906 296.5625 288.824219 296.429688 288.890625 C 295.90625 289.023438 295.773438 289.484375 295.507812 289.8125 C 294.851562 290.601562 294.324219 291.589844 293.46875 292.183594 C 293.074219 292.707031 292.679688 293.234375 292.285156 293.761719 C 292.21875 294.289062 291.757812 294.550781 291.429688 294.945312 C 291.164062 295.339844 290.835938 295.734375 290.375 296 C 289.914062 296.722656 289.125 297.183594 288.730469 298.039062 C 288.53125 298.5 288.007812 298.894531 287.675781 299.289062 C 287.480469 299.226562 287.28125 299.226562 287.148438 299.226562 C 287.148438 299.355469 287.214844 299.554688 287.148438 299.683594 C 287.019531 299.949219 286.886719 300.210938 286.691406 300.34375 C 286.230469 300.738281 285.769531 301.132812 285.503906 301.660156 C 285.503906 301.726562 285.4375 301.792969 285.4375 301.792969 C 285.375 301.859375 285.242188 301.921875 285.175781 301.921875 C 284.582031 301.988281 284.121094 302.382812 283.792969 302.777344 C 283.398438 303.175781 283.003906 303.570312 282.609375 303.898438 C 282.410156 304.03125 282.28125 304.226562 282.148438 304.359375 C 281.753906 304.820312 281.425781 305.347656 280.964844 305.675781 C 280.566406 306.003906 280.171875 306.464844 279.84375 306.859375 C 279.449219 307.386719 278.921875 307.78125 278.660156 308.441406 C 278.59375 308.636719 278.394531 308.835938 278.265625 308.902344 C 277.804688 309.097656 277.476562 309.492188 277.078125 309.820312 C 276.949219 309.953125 276.816406 310.085938 276.683594 310.152344 C 275.761719 310.480469 275.039062 311.074219 274.316406 311.664062 C 274.117188 311.796875 273.789062 311.863281 273.527344 311.929688 C 272.800781 312.191406 272.078125 312.453125 271.417969 312.847656 C 270.5625 313.375 269.773438 313.96875 269.246094 314.757812 C 268.785156 314.890625 268.390625 315.023438 267.996094 315.152344 C 267.863281 315.21875 267.734375 315.351562 267.535156 315.351562 C 266.945312 315.480469 266.351562 315.546875 265.757812 315.8125 C 265.230469 316.074219 264.640625 316.273438 264.046875 316.46875 C 263.585938 316.601562 263.191406 316.667969 262.863281 316.996094 C 262.664062 317.195312 262.402344 317.257812 262.136719 317.324219 C 261.742188 317.457031 261.347656 317.65625 260.886719 317.785156 C 260.425781 317.917969 259.964844 318.117188 259.636719 318.511719 C 259.308594 318.90625 258.847656 319.101562 258.320312 319.234375 C 257.464844 319.367188 256.742188 319.828125 256.28125 320.484375 C 255.753906 321.273438 255.03125 321.734375 254.109375 321.867188 C 253.582031 321.933594 253.1875 322.261719 252.988281 322.722656 C 252.792969 323.117188 252.527344 323.511719 252.332031 323.839844 C 252.199219 324.039062 251.9375 324.105469 251.738281 323.90625 C 251.542969 323.777344 251.410156 323.511719 251.210938 323.578125 C 250.6875 323.578125 250.09375 323.710938 249.699219 324.105469 C 249.371094 324.5 248.910156 324.699219 248.382812 324.761719 C 247.722656 324.894531 247.066406 325.027344 246.472656 325.222656 C 246.210938 325.289062 245.882812 325.355469 245.683594 325.488281 C 245.15625 325.882812 244.5625 326.078125 243.90625 326.277344 C 243.3125 326.472656 242.789062 326.738281 242.195312 326.933594 C 241.734375 327.066406 241.273438 327.332031 240.8125 327.527344 C 240.351562 328.121094 239.628906 328.121094 238.96875 328.121094 C 238.378906 328.121094 237.785156 328.1875 237.125 328.1875 C 236.664062 328.1875 236.402344 328.316406 236.074219 328.582031 C 235.941406 328.777344 235.679688 328.84375 235.480469 328.84375 C 234.824219 328.84375 234.296875 329.105469 233.835938 329.566406 C 233.507812 329.898438 233.113281 330.027344 232.652344 330.09375 C 232.257812 330.160156 231.925781 330.292969 231.53125 330.359375 C 231.269531 330.421875 230.941406 330.488281 230.742188 330.488281 C 230.019531 330.292969 229.425781 330.621094 228.898438 331.082031 C 228.636719 331.28125 228.371094 331.410156 227.976562 331.476562 C 227.847656 331.476562 227.648438 331.476562 227.515625 331.609375 C 226.464844 332.332031 225.214844 332.332031 224.027344 332.464844 C 223.371094 332.53125 222.710938 332.660156 222.054688 332.726562 C 221.660156 332.792969 221.265625 332.859375 220.933594 332.925781 C 220.539062 333.054688 220.210938 333.121094 219.816406 333.054688 C 219.550781 333.054688 219.289062 333.121094 219.027344 333.320312 C 218.828125 333.453125 218.632812 333.582031 218.5 333.714844 C 218.105469 333.976562 217.710938 334.109375 217.25 334.175781 C 216.984375 334.175781 216.722656 334.242188 216.460938 334.308594 C 216.195312 334.371094 215.933594 334.308594 215.667969 334.175781 C 215.339844 333.914062 215.011719 333.914062 214.550781 333.914062 C 214.089844 333.914062 213.5625 333.78125 213.101562 333.78125 C 212.773438 333.78125 212.445312 333.714844 212.113281 333.914062 C 211.589844 334.242188 210.929688 334.175781 210.335938 334.308594 C 210.140625 334.371094 209.878906 334.308594 209.679688 334.242188 C 209.019531 333.976562 208.363281 334.042969 207.769531 334.4375 C 207.640625 334.503906 207.441406 334.503906 207.246094 334.570312 C 206.324219 334.175781 205.269531 333.914062 204.28125 334.4375 C 203.625 334.242188 203.097656 333.914062 202.503906 333.847656 C 201.914062 333.714844 201.320312 333.78125 200.664062 333.78125 C 199.9375 333.78125 199.214844 333.78125 198.488281 333.714844 C 198.226562 333.714844 198.09375 333.78125 197.898438 333.914062 C 197.765625 333.976562 197.570312 334.042969 197.4375 334.042969 C 196.976562 333.914062 196.582031 333.976562 196.121094 333.914062 C 195.792969 333.914062 195.460938 333.914062 195.199219 334.175781 C 195 334.308594 194.804688 334.242188 194.539062 334.175781 C 194.34375 334.109375 194.082031 333.914062 193.949219 333.976562 C 193.421875 334.242188 193.027344 333.714844 192.5 333.914062 C 191.511719 334.242188 190.394531 333.976562 189.40625 334.042969 C 189.078125 334.042969 188.75 333.914062 188.417969 333.847656 C 187.367188 333.386719 186.246094 333.453125 185.195312 333.847656 C 185.0625 333.914062 184.867188 333.976562 184.734375 333.976562 C 184.601562 334.042969 184.40625 334.109375 184.273438 334.042969 C 183.613281 333.78125 182.957031 333.976562 182.296875 334.042969 C 181.246094 334.175781 180.191406 334.175781 179.140625 333.914062 C 178.941406 333.847656 178.679688 333.847656 178.480469 333.78125 C 178.152344 333.714844 177.824219 333.78125 177.558594 334.042969 C 177.03125 334.503906 176.570312 334.898438 175.847656 335.097656 C 175.125 334.769531 174.464844 334.242188 173.609375 334.109375 C 173.28125 333.714844 172.820312 333.78125 172.359375 333.847656 C 171.898438 333.914062 171.371094 333.78125 170.910156 333.914062 C 170.449219 334.042969 169.988281 333.976562 169.59375 334.175781 C 168.871094 334.4375 168.210938 334.4375 167.488281 334.109375 C 167.160156 333.976562 166.832031 334.042969 166.5 334.042969 C 165.710938 334.175781 165.054688 333.976562 164.527344 333.453125 C 164.261719 333.253906 164 333.054688 163.671875 333.054688 C 162.882812 333.054688 162.15625 332.792969 161.433594 332.53125 C 160.644531 332.265625 159.789062 331.871094 158.867188 332.003906 C 157.8125 331.738281 156.761719 332.003906 155.773438 332.199219 C 155.574219 332.265625 155.3125 332.332031 155.113281 332.265625 C 153.535156 331.804688 151.824219 331.804688 150.179688 331.738281 C 150.046875 331.738281 149.914062 331.738281 149.847656 331.675781 C 148.796875 331.082031 147.675781 331.542969 146.625 331.542969 C 146.230469 331.738281 145.832031 331.675781 145.503906 331.542969 C 144.78125 331.34375 144.058594 331.28125 143.398438 331.015625 C 143.003906 330.820312 142.609375 330.6875 142.34375 330.226562 C 142.148438 329.898438 141.753906 329.699219 141.488281 329.503906 C 140.304688 329.371094 139.25 329.238281 138.132812 329.171875 C 137.933594 329.171875 137.671875 329.042969 137.539062 328.84375 C 137.34375 328.515625 137.078125 328.382812 136.75 328.316406 C 135.699219 328.054688 134.644531 327.59375 133.722656 326.933594 C 133.195312 326.539062 132.605469 326.210938 131.945312 326.078125 C 131.417969 326.015625 131.15625 325.488281 130.628906 325.355469 C 130.101562 325.289062 129.707031 324.960938 129.3125 324.699219 C 128.851562 324.367188 128.324219 324.238281 127.734375 324.300781 C 126.878906 324.367188 125.957031 324.300781 124.902344 324.367188 C 124.707031 324.238281 124.375 324.039062 124.046875 323.839844 C 123.71875 323.644531 123.519531 323.445312 123.453125 323.050781 C 123.390625 322.65625 123.125 322.394531 122.730469 322.195312 C 122.269531 321.933594 121.808594 321.605469 121.21875 321.472656 C 120.886719 321.40625 120.625 321.207031 120.425781 320.945312 C 120.230469 320.683594 119.964844 320.484375 119.636719 320.351562 C 118.585938 319.957031 117.726562 319.234375 116.675781 318.839844 C 116.542969 318.773438 116.476562 318.707031 116.410156 318.640625 C 115.820312 317.917969 115.03125 317.589844 114.175781 317.257812 C 113.84375 317.128906 113.449219 316.929688 113.1875 316.667969 C 112.921875 316.402344 112.660156 316.339844 112.332031 316.339844 C 112.132812 316.339844 111.871094 316.402344 111.671875 316.339844 C 111.210938 316.140625 110.816406 316.207031 110.355469 316.273438 C 110.160156 316.339844 109.894531 316.207031 109.765625 316.007812 C 109.105469 314.957031 107.988281 314.363281 107.132812 313.507812 C 106.933594 313.246094 106.605469 313.113281 106.277344 312.980469 C 106.011719 312.785156 105.617188 312.71875 105.421875 312.519531 C 104.960938 312.125 104.433594 311.992188 103.972656 311.730469 C 103.511719 311.46875 103.183594 311.007812 102.589844 310.808594 C 102.328125 310.742188 102.128906 310.546875 101.929688 310.347656 C 101.207031 309.625 100.285156 309.230469 99.296875 309.097656 C 99.167969 309.097656 98.96875 309.03125 98.839844 308.964844 C 98.507812 308.902344 98.246094 308.703125 98.046875 308.375 C 97.257812 307.058594 97.191406 307.125 95.613281 306.53125 C 95.085938 306.332031 94.492188 306.464844 94.03125 306.003906 C 93.703125 305.675781 93.308594 305.347656 92.914062 305.015625 C 92.191406 304.359375 91.398438 303.699219 90.742188 302.976562 C 90.542969 302.777344 90.347656 302.648438 90.082031 302.449219 C 89.6875 302.1875 89.226562 301.921875 88.964844 301.527344 C 88.832031 301.332031 88.570312 301.199219 88.308594 301.003906 C 87.386719 300.410156 86.53125 299.6875 85.9375 298.765625 C 85.804688 298.5 85.609375 298.304688 85.277344 298.238281 C 84.753906 298.105469 84.421875 297.777344 84.09375 297.382812 C 83.4375 296.460938 82.382812 296 81.59375 295.277344 C 81.132812 294.878906 80.539062 294.75 79.882812 294.683594 C 79.421875 294.683594 79.15625 294.355469 79.09375 293.960938 C 78.960938 292.839844 78.171875 292.246094 77.378906 291.65625 C 76.789062 291.195312 76.195312 290.800781 75.667969 290.339844 C 75.539062 290.207031 75.339844 290.011719 75.144531 289.945312 C 74.683594 289.746094 74.285156 289.417969 73.890625 289.15625 C 73.5625 288.890625 73.234375 288.757812 72.90625 288.5625 C 72.707031 288.429688 72.445312 288.296875 72.246094 288.035156 C 71.984375 287.707031 71.652344 287.574219 71.257812 287.574219 C 70.734375 287.574219 70.273438 287.3125 70.007812 286.851562 C 69.8125 286.585938 69.613281 286.324219 69.285156 286.125 C 68.957031 285.929688 68.757812 285.601562 68.5625 285.207031 C 68.164062 284.285156 67.375 283.625 66.71875 282.902344 C 66.386719 282.574219 66.058594 282.308594 65.664062 282.046875 C 65.269531 281.78125 64.875 281.453125 64.546875 281.058594 C 64.414062 280.859375 64.214844 280.730469 64.019531 280.664062 C 63.558594 280.53125 63.296875 280.203125 62.898438 279.941406 C 62.4375 279.675781 62.042969 279.414062 61.847656 278.953125 C 61.1875 278.359375 60.597656 277.570312 59.675781 277.175781 C 59.347656 277.042969 59.148438 276.78125 59.015625 276.449219 C 58.820312 276.054688 58.621094 275.660156 58.359375 275.265625 C 58.160156 274.9375 57.898438 274.675781 57.503906 274.542969 C 56.910156 274.34375 56.515625 273.882812 56.253906 273.292969 C 56.121094 272.960938 55.921875 272.566406 55.660156 272.304688 C 55.527344 272.171875 55.460938 271.910156 55.398438 271.710938 C 55.132812 271.054688 55 270.328125 54.605469 269.671875 C 54.539062 269.605469 54.476562 269.472656 54.476562 269.34375 C 54.410156 268.355469 53.816406 267.761719 53.222656 267.039062 C 53.027344 266.839844 52.894531 266.578125 52.765625 266.316406 C 52.304688 265.195312 51.710938 264.140625 51.050781 263.089844 C 50.921875 262.890625 50.855469 262.695312 50.789062 262.496094 C 50.65625 262.167969 50.527344 261.773438 50.394531 261.445312 C 50.261719 261.179688 50.132812 260.984375 49.867188 260.851562 C 49.605469 260.71875 49.40625 260.523438 49.210938 260.324219 C 48.816406 259.996094 48.550781 259.601562 48.550781 259.074219 C 48.550781 258.351562 48.222656 257.625 47.828125 257.035156 C 47.5 256.574219 46.90625 256.242188 46.90625 255.585938 C 46.640625 255.058594 46.378906 254.46875 46.117188 253.941406 C 46.050781 253.808594 45.984375 253.742188 45.984375 253.609375 C 45.851562 253.347656 45.722656 253.152344 45.457031 252.953125 C 44.601562 252.425781 44.207031 251.636719 44.074219 250.582031 C 44.074219 250.453125 44.007812 250.253906 43.945312 250.058594 C 43.8125 249.992188 43.613281 249.859375 43.417969 249.792969 C 43.351562 249.726562 43.21875 249.660156 43.152344 249.597656 C 42.890625 248.9375 42.429688 248.34375 42.035156 247.753906 C 41.96875 247.621094 41.902344 247.425781 41.96875 247.292969 C 42.035156 246.898438 41.902344 246.570312 41.773438 246.171875 C 41.640625 245.582031 41.3125 245.316406 40.71875 245.316406 C 40.519531 245.316406 40.390625 245.121094 40.457031 244.988281 C 40.519531 244.855469 40.519531 244.660156 40.585938 244.527344 C 40.652344 244.394531 40.71875 244.199219 40.71875 244.066406 C 40.71875 243.871094 40.652344 243.605469 40.585938 243.410156 C 40.519531 243.210938 40.324219 243.078125 40.191406 242.882812 C 39.929688 242.554688 39.601562 242.222656 39.46875 241.761719 C 39.402344 241.566406 39.269531 241.367188 39.140625 241.238281 C 38.742188 240.90625 38.546875 240.578125 38.613281 240.117188 C 38.679688 239.65625 38.480469 239.195312 38.21875 238.867188 C 37.824219 238.40625 37.558594 237.878906 37.363281 237.289062 C 37.230469 236.894531 37.03125 236.628906 36.636719 236.433594 C 36.375 236.234375 36.109375 236.039062 35.847656 235.839844 C 35.78125 235.511719 35.78125 235.179688 35.652344 234.851562 C 35.519531 234.523438 35.386719 234.261719 35.191406 233.929688 C 34.925781 233.40625 34.859375 232.878906 34.992188 232.351562 C 35.125 231.957031 35.253906 231.496094 35.253906 231.101562 C 35.253906 230.707031 35.253906 230.3125 35.320312 229.980469 C 35.386719 229.585938 35.253906 229.191406 34.859375 228.996094 C 34.792969 228.929688 34.664062 228.863281 34.597656 228.796875 C 34.398438 228.597656 34.269531 228.335938 34.269531 228.074219 C 34.335938 227.546875 34.398438 226.953125 34.53125 226.363281 C 33.609375 225.242188 33.414062 223.792969 32.753906 222.476562 C 33.019531 221.820312 32.953125 221.097656 33.28125 220.4375 C 33.347656 220.304688 33.28125 220.109375 33.214844 219.976562 C 32.820312 219.382812 32.753906 218.726562 32.6875 218.066406 C 32.6875 217.871094 32.6875 217.609375 32.621094 217.410156 C 32.359375 216.554688 32.292969 215.699219 32.292969 214.777344 C 32.292969 214.644531 32.226562 214.382812 32.097656 214.316406 C 31.570312 214.117188 31.570312 213.660156 31.570312 213.199219 C 31.570312 212.933594 31.570312 212.671875 31.503906 212.210938 C 31.371094 212.144531 31.175781 212.011719 31.042969 211.882812 C 30.84375 211.683594 30.714844 211.421875 30.714844 211.15625 C 30.648438 210.761719 30.582031 210.367188 30.648438 209.972656 C 30.648438 209.445312 30.714844 208.851562 31.242188 208.457031 C 31.636719 208.195312 31.703125 207.734375 31.703125 207.273438 C 31.703125 206.617188 31.765625 205.957031 31.765625 205.300781 C 31.765625 204.640625 31.964844 204.046875 32.292969 203.585938 C 32.621094 203.128906 32.886719 202.667969 33.148438 202.207031 C 33.414062 201.746094 33.875 201.546875 34.136719 201.085938 C 34.335938 200.757812 34.53125 200.429688 34.597656 200.035156 C 34.664062 199.441406 34.792969 198.847656 34.859375 198.257812 C 34.925781 197.730469 35.320312 197.269531 35.253906 196.675781 C 35.253906 196.546875 35.320312 196.414062 35.386719 196.347656 C 35.847656 195.953125 35.78125 195.492188 35.847656 194.964844 C 35.847656 194.832031 35.847656 194.769531 35.847656 194.636719 C 36.109375 194.308594 36.507812 194.371094 36.769531 193.976562 C 36.96875 193.714844 37.363281 193.648438 37.691406 193.648438 C 38.414062 193.582031 38.875 193.054688 39.335938 192.597656 C 39.664062 192.265625 39.796875 191.804688 39.402344 191.410156 C 39.335938 191.34375 39.269531 191.214844 39.203125 191.148438 C 39.203125 190.882812 39.402344 190.820312 39.601562 190.6875 C 39.664062 190.621094 39.863281 190.621094 39.863281 190.488281 C 40.191406 189.765625 40.917969 189.371094 41.3125 188.710938 C 41.441406 188.316406 41.246094 187.988281 41.179688 187.59375 C 41.113281 187.265625 40.71875 187.066406 40.390625 187.199219 C 40.125 187.265625 39.863281 187.332031 39.664062 187 C 39.535156 186.738281 39.335938 186.539062 39.203125 186.34375 C 39.074219 186.144531 39.007812 185.882812 39.140625 185.683594 C 39.46875 185.09375 39.402344 184.5 39.402344 183.90625 C 39.402344 183.777344 39.335938 183.511719 39.269531 183.445312 C 38.875 183.117188 38.808594 182.722656 38.808594 182.261719 C 38.808594 181.667969 38.480469 181.472656 37.953125 181.472656 C 37.886719 181.472656 37.886719 181.40625 37.824219 181.40625 C 37.625 181.078125 37.558594 180.683594 37.558594 180.289062 C 37.558594 180.023438 37.558594 179.761719 37.558594 179.433594 C 37.558594 178.640625 37.363281 178.445312 36.507812 178.179688 C 35.652344 177.851562 34.792969 177.523438 34.003906 176.929688 C 33.476562 176.535156 33.148438 176.074219 33.019531 175.484375 C 32.953125 175.21875 32.953125 174.890625 33.214844 174.757812 C 33.609375 174.496094 33.875 174.167969 34.136719 173.835938 C 34.53125 173.507812 34.859375 173.113281 35.253906 172.851562 C 35.914062 172.453125 36.507812 171.929688 37.03125 171.335938 C 37.230469 171.074219 37.492188 170.875 37.824219 170.742188 C 38.414062 170.480469 39.007812 170.152344 39.601562 169.820312 C 39.730469 169.757812 39.929688 169.691406 40.058594 169.691406 C 40.324219 169.691406 40.519531 169.625 40.652344 169.425781 C 40.785156 169.230469 40.917969 169.03125 41.046875 168.902344 C 41.3125 168.503906 41.640625 168.109375 42.101562 167.847656 C 42.691406 167.453125 43.21875 166.925781 43.679688 166.398438 C 43.945312 166.136719 44.074219 165.871094 44.007812 165.476562 C 44.007812 164.886719 44.074219 164.359375 44.40625 163.898438 C 45.0625 163.175781 45.128906 162.320312 44.996094 161.398438 C 44.867188 160.804688 44.929688 160.210938 44.996094 159.554688 C 45.0625 158.960938 45.128906 158.371094 45.195312 157.710938 C 45.195312 157.382812 45.128906 157.054688 44.996094 156.789062 C 44.734375 156.394531 44.40625 156 44.339844 155.472656 C 44.273438 155.144531 43.945312 154.945312 43.679688 154.75 C 43.484375 154.617188 43.351562 154.421875 43.351562 154.222656 C 43.351562 153.894531 43.21875 153.5625 43.023438 153.300781 C 42.628906 152.773438 42.429688 152.117188 42.429688 151.457031 C 42.429688 151.128906 42.363281 150.800781 42.296875 150.472656 C 42.167969 150.011719 41.902344 149.550781 41.835938 149.089844 C 41.773438 148.628906 41.640625 148.234375 41.574219 147.773438 C 41.375 147.113281 41.3125 146.457031 41.246094 145.796875 C 41.179688 145.601562 41.246094 145.335938 41.179688 145.140625 C 40.851562 144.546875 40.785156 143.886719 40.851562 143.230469 C 40.851562 143.03125 40.785156 142.769531 40.71875 142.570312 C 40.257812 141.652344 40.324219 140.730469 40.652344 139.875 C 40.785156 139.480469 40.980469 139.019531 40.917969 138.558594 C 40.851562 137.898438 41.179688 137.371094 41.507812 136.910156 C 41.640625 136.714844 41.773438 136.582031 41.902344 136.386719 C 42.496094 135.660156 42.496094 135.660156 42.628906 134.542969 C 43.21875 134.277344 43.550781 133.816406 43.679688 133.226562 C 43.878906 132.304688 44.40625 131.515625 44.667969 130.59375 C 44.734375 130.394531 44.734375 130.265625 44.667969 130.132812 C 44.40625 129.539062 44.601562 129.011719 44.996094 128.617188 C 45.851562 127.695312 46.183594 126.511719 46.773438 125.457031 C 46.972656 125.128906 47.101562 124.734375 47.433594 124.539062 C 47.957031 124.140625 48.289062 123.683594 48.617188 123.15625 C 48.75 122.890625 48.878906 122.695312 48.878906 122.367188 C 48.878906 121.839844 49.011719 121.378906 49.339844 120.984375 C 49.539062 120.652344 49.734375 120.324219 49.933594 119.996094 C 50.066406 119.734375 50.195312 119.46875 50.261719 119.207031 C 50.328125 118.679688 50.527344 118.285156 50.789062 117.824219 C 51.050781 117.429688 51.25 116.96875 51.511719 116.507812 C 51.578125 116.375 51.710938 116.179688 51.710938 116.046875 C 51.644531 115.386719 51.84375 114.863281 52.433594 114.46875 C 52.5 114.402344 52.632812 114.335938 52.632812 114.203125 C 52.828125 113.414062 53.421875 112.886719 53.882812 112.230469 C 54.34375 111.570312 54.738281 110.976562 55.199219 110.320312 C 55.332031 110.121094 55.460938 109.925781 55.660156 109.859375 C 56.1875 109.53125 56.449219 109.070312 56.582031 108.542969 C 56.648438 108.148438 56.910156 107.886719 57.238281 107.621094 C 57.832031 107.226562 58.226562 106.765625 58.425781 106.109375 C 58.554688 105.710938 58.753906 105.253906 59.082031 104.921875 C 59.742188 104.265625 59.9375 103.277344 60.597656 102.554688 C 60.726562 102.421875 60.792969 102.160156 60.859375 101.960938 C 61.058594 101.304688 61.386719 100.710938 61.914062 100.316406 C 62.769531 99.65625 63.164062 98.671875 63.953125 97.945312 C 64.214844 97.417969 64.480469 96.957031 64.675781 96.433594 C 64.808594 96.101562 65.007812 95.839844 65.335938 95.773438 C 65.796875 95.640625 66.125 95.378906 66.324219 94.917969 C 66.519531 94.523438 66.71875 94.128906 66.980469 93.734375 C 67.308594 93.273438 67.640625 92.878906 68.296875 92.8125 C 68.824219 92.746094 69.21875 92.484375 69.417969 91.957031 C 69.546875 91.628906 69.746094 91.429688 70.074219 91.230469 C 70.335938 91.101562 70.667969 90.835938 70.929688 90.773438 C 71.785156 90.640625 72.378906 89.980469 73.167969 89.71875 C 73.429688 89.652344 73.628906 89.390625 73.695312 89.125 C 74.023438 88.535156 74.484375 88.203125 75.144531 88.203125 C 75.800781 88.203125 76.328125 88.074219 76.855469 87.679688 C 77.050781 87.546875 77.25 87.414062 77.445312 87.480469 C 78.105469 87.546875 78.632812 87.085938 79.222656 87.21875 C 79.289062 87.21875 79.421875 87.152344 79.488281 87.085938 C 79.75 86.757812 80.078125 86.625 80.472656 86.558594 C 80.804688 86.492188 81.132812 86.425781 81.460938 86.363281 C 81.988281 86.230469 82.449219 85.964844 82.777344 85.441406 C 83.238281 84.648438 83.832031 83.992188 84.488281 83.53125 C 84.554688 83.398438 84.621094 83.269531 84.621094 83.136719 C 84.554688 82.347656 84.621094 81.558594 85.214844 80.964844 C 85.34375 80.832031 85.410156 80.699219 85.410156 80.503906 C 85.542969 79.648438 86.132812 79.054688 86.660156 78.398438 C 86.925781 78.066406 87.1875 77.804688 87.449219 77.542969 C 87.847656 77.148438 88.175781 76.6875 88.308594 76.160156 C 88.4375 75.832031 88.570312 75.566406 88.832031 75.371094 C 89.425781 74.910156 89.953125 74.316406 90.480469 73.789062 C 91.070312 73.199219 91.597656 72.539062 92.191406 72.011719 C 92.519531 71.683594 92.914062 71.355469 93.375 71.15625 C 93.703125 71.027344 94.03125 70.761719 94.296875 70.566406 C 94.363281 70.433594 94.429688 70.300781 94.429688 70.234375 C 94.492188 68.984375 94.558594 68.851562 95.808594 68.523438 C 96.730469 68.328125 97.585938 68.0625 98.441406 67.535156 C 98.640625 67.40625 98.96875 67.339844 99.234375 67.273438 C 100.15625 66.8125 101.140625 66.417969 101.800781 65.5625 C 102.128906 65.101562 102.65625 64.902344 103.246094 64.773438 C 103.378906 64.707031 103.578125 64.707031 103.707031 64.640625 C 104.105469 64.445312 104.300781 63.984375 104.761719 63.917969 C 105.222656 63.851562 105.617188 63.785156 106.078125 63.71875 C 106.40625 63.652344 106.671875 63.523438 106.933594 63.257812 C 107.59375 62.601562 108.316406 62.007812 109.039062 61.351562 C 109.171875 61.21875 109.371094 61.085938 109.566406 60.953125 C 110.621094 60.625 111.410156 59.902344 112.199219 59.242188 C 112.527344 58.980469 112.792969 58.78125 113.1875 58.71875 C 113.777344 58.585938 114.371094 58.386719 114.832031 57.992188 C 115.03125 57.796875 115.292969 57.730469 115.554688 57.597656 C 115.753906 57.53125 116.015625 57.464844 116.148438 57.269531 C 116.742188 56.609375 117.664062 56.347656 118.386719 55.886719 C 118.648438 55.6875 118.980469 55.558594 119.308594 55.625 C 120.097656 55.625 120.820312 55.558594 121.546875 55.230469 C 121.742188 55.164062 121.941406 55.097656 122.203125 55.097656 C 122.796875 55.03125 123.324219 54.703125 123.914062 54.4375 C 124.769531 54.042969 125.5625 53.386719 126.546875 53.1875 C 126.746094 53.121094 126.941406 52.925781 127.007812 52.792969 C 127.207031 52.464844 127.535156 52.332031 127.863281 52.332031 C 128.457031 52.332031 128.917969 52.199219 129.378906 51.871094 C 129.972656 51.476562 130.5625 51.082031 131.351562 51.082031 C 131.878906 50.753906 132.539062 50.753906 132.800781 50.09375 C 132.867188 50.027344 132.933594 49.898438 133 49.832031 C 133.921875 49.566406 134.511719 48.777344 135.5 48.582031 C 136.222656 48.449219 136.882812 48.25 137.476562 47.789062 C 137.605469 47.660156 137.738281 47.59375 137.933594 47.59375 C 139.25 47.265625 140.371094 46.539062 141.820312 46.078125 C 141.882812 46.078125 142.148438 46.210938 142.410156 46.277344 C 142.871094 46.410156 143.265625 46.472656 143.726562 46.277344 C 144.453125 45.949219 145.175781 46.015625 145.832031 46.277344 C 146.292969 46.472656 146.691406 46.410156 147.148438 46.34375 C 147.28125 46.34375 147.480469 46.277344 147.609375 46.210938 C 148.203125 45.949219 148.730469 45.882812 149.386719 45.882812 C 150.046875 45.882812 150.703125 45.683594 151.296875 45.421875 C 152.085938 45.09375 152.941406 45.15625 153.667969 44.761719 C 154.257812 44.761719 154.917969 44.761719 155.507812 44.761719 C 155.707031 44.761719 155.96875 44.828125 156.167969 44.828125 C 157.351562 44.699219 158.472656 44.828125 159.65625 44.761719 C 160.050781 44.761719 160.445312 44.761719 160.773438 44.632812 C 161.566406 44.367188 162.421875 44.367188 163.210938 44.433594 C 163.605469 44.5 164 44.433594 164.328125 44.300781 C 165.578125 43.90625 166.832031 43.777344 168.082031 43.710938 C 169.070312 43.644531 170.054688 43.511719 170.976562 43.117188 C 171.570312 42.855469 172.160156 42.855469 172.6875 43.25 C 172.886719 43.382812 173.214844 43.511719 173.476562 43.445312 C 174.003906 43.382812 174.464844 43.578125 174.992188 43.511719 C 175.320312 43.445312 175.652344 43.511719 175.980469 43.710938 C 176.507812 43.972656 177.097656 43.972656 177.558594 43.710938 C 178.679688 43.183594 179.796875 43.316406 180.980469 43.25 C 181.179688 43.25 181.441406 43.316406 181.640625 43.382812 C 181.902344 43.445312 182.167969 43.511719 182.429688 43.382812 C 182.890625 43.183594 183.285156 43.25 183.679688 43.382812 C 184.46875 43.710938 185.261719 43.839844 186.117188 43.644531 C 186.378906 43.578125 186.640625 43.578125 186.90625 43.644531 C 187.433594 43.777344 188.023438 43.839844 188.550781 43.90625 C 188.75 43.972656 188.945312 43.972656 189.210938 43.839844 C 189.800781 43.644531 190.394531 43.578125 190.988281 43.710938 C 191.644531 43.839844 192.304688 43.839844 192.960938 43.777344 C 193.683594 43.710938 194.410156 43.777344 195.132812 43.777344 C 195.398438 43.777344 195.660156 43.839844 195.921875 44.039062 C 196.1875 44.171875 196.449219 44.238281 196.714844 44.171875 C 197.171875 44.039062 197.570312 44.171875 197.964844 44.300781 C 199.742188 44.960938 201.582031 45.617188 203.492188 46.144531 C 203.886719 46.277344 204.28125 46.34375 204.613281 46.34375 C 205.53125 46.210938 206.324219 46.671875 207.179688 46.933594 C 207.246094 46.933594 207.246094 47 207.308594 47 C 207.835938 47.265625 208.429688 47.59375 208.957031 47.726562 C 209.546875 47.855469 210.140625 47.789062 210.734375 47.789062 C 211.128906 48.054688 211.523438 48.25 211.917969 48.449219 C 212.246094 48.648438 212.640625 48.710938 213.035156 48.710938 C 213.367188 48.710938 213.695312 48.710938 214.023438 48.84375 C 214.550781 49.042969 215.078125 49.171875 215.601562 49.238281 C 216.394531 49.304688 217.117188 49.632812 217.710938 50.09375 C 218.171875 50.488281 218.695312 50.753906 219.289062 50.882812 C 219.949219 51.082031 220.539062 51.34375 221.132812 51.675781 C 221.789062 52.003906 222.449219 52.332031 223.105469 52.464844 C 223.371094 52.53125 223.632812 52.597656 223.898438 52.660156 C 225.015625 52.792969 226.070312 52.925781 227.1875 53.121094 C 227.648438 53.1875 228.109375 53.386719 228.636719 53.515625 C 229.164062 53.648438 229.6875 53.648438 230.214844 53.914062 C 230.675781 54.175781 231.269531 54.242188 231.796875 54.371094 C 232.191406 54.503906 232.519531 54.636719 232.914062 54.769531 C 233.441406 54.964844 233.96875 55.03125 234.558594 54.898438 C 235.019531 54.832031 235.414062 54.832031 235.875 54.769531 C 236.335938 54.703125 236.730469 54.832031 237.125 55.03125 C 237.191406 55.03125 237.191406 55.097656 237.257812 55.097656 C 237.917969 55.6875 238.707031 55.953125 239.5625 55.953125 C 240.21875 55.953125 240.878906 56.148438 241.339844 56.609375 C 241.535156 56.808594 241.800781 56.875 242.128906 56.875 C 243.050781 57.003906 243.972656 57.203125 244.894531 57.269531 C 245.355469 57.335938 245.75 57.464844 246.210938 57.464844 C 246.671875 57.464844 247.066406 57.597656 247.460938 57.863281 C 247.527344 57.925781 247.65625 57.992188 247.722656 58.058594 C 248.183594 58.453125 248.644531 58.652344 249.238281 58.585938 C 249.566406 58.585938 249.894531 58.71875 250.160156 58.980469 C 250.816406 59.703125 251.671875 60.035156 252.726562 59.96875 C 252.859375 60.097656 253.054688 60.296875 253.1875 60.429688 C 253.382812 60.625 253.582031 60.824219 253.910156 60.824219 C 254.699219 60.757812 255.359375 61.285156 256.148438 61.351562 C 256.609375 61.679688 257.136719 61.941406 257.53125 62.269531 C 257.925781 62.601562 258.386719 62.796875 258.78125 62.996094 C 259.503906 63.324219 260.230469 63.585938 260.691406 64.246094 C 261.152344 64.507812 261.613281 64.839844 262.136719 65.035156 C 262.796875 65.300781 263.453125 65.628906 264.113281 65.890625 C 264.441406 66.023438 264.769531 66.21875 265.101562 66.484375 C 265.757812 67.078125 266.484375 67.339844 267.402344 67.273438 C 267.535156 67.273438 267.734375 67.273438 267.929688 67.273438 C 268.917969 67.207031 269.773438 67.601562 270.433594 68.328125 C 271.222656 69.183594 272.273438 69.773438 273.328125 70.234375 C 273.589844 70.367188 273.984375 70.433594 274.316406 70.5 C 275.238281 70.628906 276.027344 70.960938 276.683594 71.617188 C 276.882812 71.816406 277.078125 72.011719 277.34375 72.144531 C 278 72.539062 278.59375 73.066406 279.1875 73.59375 C 279.515625 73.921875 279.84375 74.183594 280.304688 74.25 C 280.699219 74.316406 281.027344 74.515625 281.359375 74.710938 C 282.476562 75.433594 283.660156 75.960938 284.78125 76.75 C 285.175781 77.015625 285.703125 77.148438 286.097656 77.34375 C 286.164062 77.542969 286.292969 77.671875 286.359375 77.804688 C 286.558594 78.792969 287.28125 79.253906 288.136719 79.515625 C 288.53125 79.648438 288.992188 79.78125 289.386719 80.042969 C 289.652344 80.242188 290.046875 80.304688 290.242188 80.503906 C 290.835938 81.03125 291.558594 81.359375 292.085938 81.886719 C 292.480469 82.214844 292.8125 82.542969 293.335938 82.675781 C 293.667969 82.742188 293.929688 83.003906 294.191406 83.136719 C 294.652344 83.398438 294.984375 83.730469 295.113281 84.253906 C 295.246094 84.914062 295.640625 85.375 296.167969 85.703125 C 296.761719 86.03125 297.15625 86.558594 297.351562 87.21875 C 297.417969 87.480469 297.550781 87.742188 297.679688 87.941406 C 298.011719 88.46875 298.339844 88.996094 298.933594 89.191406 C 299.128906 89.257812 299.394531 89.390625 299.457031 89.519531 C 299.917969 90.246094 300.710938 90.574219 301.367188 91.035156 C 301.433594 91.101562 301.566406 91.167969 301.695312 91.296875 C 301.761719 91.496094 301.828125 91.757812 301.828125 92.023438 C 301.761719 92.746094 302.089844 93.207031 302.683594 93.46875 C 302.882812 93.601562 303.078125 93.734375 303.078125 93.929688 C 303.144531 94.195312 303.277344 94.457031 303.472656 94.65625 C 303.605469 94.785156 303.738281 94.917969 303.738281 95.050781 C 303.738281 95.640625 304.132812 96.101562 304.261719 96.628906 C 304.394531 97.15625 304.660156 97.683594 305.054688 98.011719 C 305.183594 98.144531 305.316406 98.339844 305.382812 98.605469 C 305.449219 99.195312 305.710938 99.65625 306.105469 100.050781 C 306.304688 100.316406 306.4375 100.578125 306.632812 100.90625 C 306.894531 101.433594 307.292969 101.960938 307.816406 102.222656 C 308.210938 102.421875 308.410156 102.683594 308.410156 103.144531 C 308.410156 103.34375 308.609375 103.539062 308.671875 103.738281 C 309.132812 104.460938 309.660156 105.1875 310.320312 105.777344 C 310.78125 106.171875 311.109375 106.632812 311.304688 107.292969 C 311.503906 108.015625 312.03125 108.476562 312.621094 108.9375 C 312.621094 109.203125 312.6875 109.464844 312.6875 109.660156 C 312.6875 110.78125 313.082031 111.703125 313.742188 112.558594 C 314.003906 112.886719 314.335938 113.214844 314.597656 113.546875 C 314.992188 114.007812 315.453125 114.402344 315.714844 114.992188 C 315.980469 115.519531 316.375 115.980469 316.570312 116.574219 C 316.96875 117.496094 317.363281 118.351562 317.886719 119.207031 C 318.285156 119.796875 318.546875 120.457031 318.941406 121.050781 C 319.269531 121.640625 319.601562 122.234375 319.996094 122.761719 C 320.324219 123.222656 320.71875 123.683594 320.980469 124.273438 C 321.113281 124.667969 321.707031 124.800781 321.773438 125.328125 C 321.835938 125.65625 322.035156 125.984375 322.035156 126.25 C 322.035156 126.839844 322.363281 127.300781 322.824219 127.632812 C 323.023438 127.761719 323.152344 127.960938 323.285156 128.089844 C 323.351562 128.222656 323.417969 128.421875 323.417969 128.550781 C 323.21875 129.933594 323.417969 131.316406 323.8125 132.632812 C 323.878906 132.832031 323.878906 133.09375 323.8125 133.292969 C 323.679688 133.6875 323.746094 134.015625 323.945312 134.410156 C 324.46875 135.59375 324.996094 136.714844 325.722656 137.765625 C 325.851562 137.964844 325.984375 138.097656 326.117188 138.292969 C 326.246094 138.425781 326.378906 138.492188 326.445312 138.6875 C 326.773438 139.742188 327.695312 140.398438 328.089844 141.386719 C 328.222656 141.714844 328.550781 141.980469 328.816406 142.242188 C 329.144531 142.570312 329.40625 143.03125 329.273438 143.429688 C 329.144531 144.019531 329.273438 144.480469 329.539062 145.007812 C 329.734375 145.402344 329.867188 145.863281 329.933594 146.257812 C 330.066406 146.980469 330.328125 147.640625 330.789062 148.167969 C 330.722656 148.363281 330.722656 148.5625 330.722656 148.695312 C 330.65625 149.023438 330.460938 149.351562 330.460938 149.613281 C 330.460938 149.878906 330.589844 150.140625 330.65625 150.40625 C 330.722656 151.261719 330.722656 152.050781 330.789062 152.90625 C 330.789062 153.101562 330.921875 153.300781 331.050781 153.5 C 331.316406 153.761719 331.644531 153.960938 331.90625 154.222656 C 332.171875 154.484375 332.304688 154.816406 332.171875 155.144531 C 332.039062 155.671875 332.039062 156.195312 332.171875 156.789062 C 332.238281 157.316406 332.238281 157.910156 332.238281 158.433594 C 332.238281 158.960938 332.632812 159.488281 332.433594 160.082031 C 332.367188 160.210938 332.433594 160.410156 332.5 160.542969 C 332.960938 161.527344 333.027344 162.714844 333.488281 163.699219 C 333.683594 164.09375 333.683594 164.554688 333.554688 165.015625 C 333.421875 165.542969 333.488281 166.003906 333.683594 166.464844 C 334.015625 167.1875 334.210938 167.914062 334.144531 168.703125 C 334.34375 168.964844 334.605469 169.230469 334.804688 169.425781 C 335.132812 169.691406 335.265625 170.085938 335.265625 170.480469 C 335.265625 170.742188 335.332031 171.074219 335.265625 171.335938 C 335.132812 171.992188 335.398438 172.519531 335.59375 173.046875 C 335.460938 173.574219 335.332031 174.035156 335.199219 174.625 C 335.398438 175.152344 335.59375 175.746094 335.855469 176.273438 C 336.121094 176.800781 336.121094 177.195312 335.726562 177.589844 C 335.398438 177.917969 335.460938 178.445312 335.527344 178.839844 C 335.726562 179.5625 335.921875 180.222656 336.1875 180.878906 C 336.253906 181.144531 336.316406 181.40625 336.253906 181.667969 C 335.855469 182.984375 336.253906 184.171875 336.714844 185.355469 C 336.910156 185.882812 337.109375 186.410156 337.238281 186.933594 C 337.765625 188.121094 337.699219 188.382812 337.632812 188.644531 Z M 337.632812 188.644531 " fill-opacity="1" fill-rule="nonzero"/></g></svg>